<?xml version="1.0" encoding="utf-8" standalone="no"?>
<!DOCTYPE svg PUBLIC "-//W3C//DTD SVG 1.1//EN"
  "http://www.w3.org/Graphics/SVG/1.1/DTD/svg11.dtd">
<!-- Created with matplotlib (https://matplotlib.org/) -->
<svg height="584.7975pt" version="1.1" viewBox="0 0 976.6375 584.7975" width="976.6375pt" xmlns="http://www.w3.org/2000/svg" xmlns:xlink="http://www.w3.org/1999/xlink">
 <metadata>
  <rdf:RDF xmlns:cc="http://creativecommons.org/ns#" xmlns:dc="http://purl.org/dc/elements/1.1/" xmlns:rdf="http://www.w3.org/1999/02/22-rdf-syntax-ns#">
   <cc:Work>
    <dc:type rdf:resource="http://purl.org/dc/dcmitype/StillImage"/>
    <dc:date>2021-05-18T16:39:48.613635</dc:date>
    <dc:format>image/svg+xml</dc:format>
    <dc:creator>
     <cc:Agent>
      <dc:title>Matplotlib v3.3.2, https://matplotlib.org/</dc:title>
     </cc:Agent>
    </dc:creator>
   </cc:Work>
  </rdf:RDF>
 </metadata>
 <defs>
  <style type="text/css">*{stroke-linecap:butt;stroke-linejoin:round;}</style>
 </defs>
 <g id="figure_1">
  <g id="patch_1">
   <path d="M 0 584.7975 
L 976.6375 584.7975 
L 976.6375 0 
L 0 0 
z
" style="fill:#ffffff;"/>
  </g>
  <g id="axes_1">
   <g id="patch_2">
    <path d="M 76.6375 531.285 
L 969.4375 531.285 
L 969.4375 32.325 
L 76.6375 32.325 
z
" style="fill:#ffffff;"/>
   </g>
   <g id="matplotlib.axis_1">
    <g id="xtick_1">
     <g id="line2d_1">
      <defs>
       <path d="M 0 0 
L 0 3.5 
" id="m1896344d8b" style="stroke:#000000;stroke-width:0.8;"/>
      </defs>
      <g>
       <use style="stroke:#000000;stroke-width:0.8;" x="117.219318" xlink:href="#m1896344d8b" y="531.285"/>
      </g>
     </g>
     <g id="text_1">
      <!-- 0 -->
      <g transform="translate(112.219318 552.269375)scale(0.2 -0.2)">
       <defs>
        <path d="M 24.609375 64.453125 
Q 19.140625 64.453125 15.421875 56.046875 
Q 11.71875 47.65625 11.71875 33.59375 
Q 11.71875 18.75 15.421875 10.546875 
Q 19.140625 2.34375 24.609375 2.34375 
Q 30.46875 2.34375 33.78125 10.546875 
Q 37.109375 18.75 37.109375 33.59375 
Q 37.109375 47.65625 33.984375 56.046875 
Q 30.859375 64.453125 24.609375 64.453125 
z
M 24.609375 -0.78125 
Q 16.015625 -0.78125 10.15625 8.203125 
Q 4.296875 17.1875 4.296875 33.59375 
Q 4.296875 48.828125 9.953125 58.203125 
Q 15.625 67.578125 24.609375 67.578125 
Q 33.203125 67.578125 38.859375 58.59375 
Q 44.53125 49.609375 44.53125 33.59375 
Q 44.53125 17.578125 38.859375 8.390625 
Q 33.203125 -0.78125 24.609375 -0.78125 
z
" id="FangSong-48"/>
       </defs>
       <use xlink:href="#FangSong-48"/>
      </g>
     </g>
    </g>
    <g id="xtick_2">
     <g id="line2d_2">
      <g>
       <use style="stroke:#000000;stroke-width:0.8;" x="241.133267" xlink:href="#m1896344d8b" y="531.285"/>
      </g>
     </g>
     <g id="text_2">
      <!-- 20 -->
      <g transform="translate(231.133267 552.269375)scale(0.2 -0.2)">
       <defs>
        <path d="M 35.9375 50.390625 
Q 35.9375 57.421875 32.8125 61.125 
Q 29.6875 64.84375 23.4375 64.84375 
Q 18.75 64.84375 15.421875 62.296875 
Q 12.109375 59.765625 12.109375 55.859375 
Q 12.109375 53.515625 13.46875 51.953125 
Q 14.84375 50.390625 14.84375 48.828125 
Q 14.84375 46.875 13.859375 45.890625 
Q 12.890625 44.921875 10.9375 44.921875 
Q 8.59375 44.921875 7.21875 46.28125 
Q 5.859375 47.65625 5.859375 50.78125 
Q 5.859375 58.984375 11.71875 63.28125 
Q 17.578125 67.578125 24.21875 67.578125 
Q 33.59375 67.578125 38.078125 62.890625 
Q 42.578125 58.203125 42.578125 51.171875 
Q 42.578125 46.484375 40.421875 41.796875 
Q 38.28125 37.109375 33.59375 32.8125 
Q 22.265625 21.875 16.203125 15.03125 
Q 10.15625 8.203125 8.984375 5.859375 
L 32.03125 5.859375 
Q 35.546875 5.859375 37.890625 8.59375 
Q 40.234375 11.328125 41.015625 16.796875 
L 43.359375 16.796875 
L 41.015625 0 
L 4.6875 0 
L 4.6875 5.078125 
Q 6.640625 8.59375 11.125 14.0625 
Q 15.625 19.53125 23.046875 26.953125 
Q 29.6875 33.59375 32.8125 39.453125 
Q 35.9375 45.3125 35.9375 50.390625 
z
" id="FangSong-50"/>
       </defs>
       <use xlink:href="#FangSong-50"/>
       <use x="50" xlink:href="#FangSong-48"/>
      </g>
     </g>
    </g>
    <g id="xtick_3">
     <g id="line2d_3">
      <g>
       <use style="stroke:#000000;stroke-width:0.8;" x="365.047215" xlink:href="#m1896344d8b" y="531.285"/>
      </g>
     </g>
     <g id="text_3">
      <!-- 40 -->
      <g transform="translate(355.047215 552.269375)scale(0.2 -0.2)">
       <defs>
        <path d="M 35.546875 7.421875 
Q 35.546875 4.6875 37.109375 3.515625 
Q 38.671875 2.34375 41.40625 2.34375 
L 44.921875 2.34375 
L 44.921875 0 
L 19.140625 0 
L 19.140625 2.34375 
L 23.4375 2.34375 
Q 26.5625 2.34375 27.921875 3.515625 
Q 29.296875 4.6875 29.296875 7.421875 
L 29.296875 20.3125 
L 3.125 20.3125 
L 3.125 22.265625 
L 31.640625 67.578125 
L 35.546875 67.578125 
L 35.546875 22.65625 
L 46.09375 22.65625 
L 46.09375 20.3125 
L 35.546875 20.3125 
z
M 28.90625 57.8125 
L 6.640625 22.65625 
L 29.296875 22.65625 
L 29.296875 57.8125 
z
" id="FangSong-52"/>
       </defs>
       <use xlink:href="#FangSong-52"/>
       <use x="50" xlink:href="#FangSong-48"/>
      </g>
     </g>
    </g>
    <g id="xtick_4">
     <g id="line2d_4">
      <g>
       <use style="stroke:#000000;stroke-width:0.8;" x="488.961164" xlink:href="#m1896344d8b" y="531.285"/>
      </g>
     </g>
     <g id="text_4">
      <!-- 60 -->
      <g transform="translate(478.961164 552.269375)scale(0.2 -0.2)">
       <defs>
        <path d="M 11.71875 26.5625 
Q 11.71875 14.84375 15.8125 8.390625 
Q 19.921875 1.953125 25.78125 1.953125 
Q 31.640625 1.953125 34.765625 6.25 
Q 37.890625 10.546875 37.890625 22.265625 
Q 37.890625 30.078125 34.5625 34.375 
Q 31.25 38.671875 26.5625 38.671875 
Q 22.265625 38.671875 18.546875 36.125 
Q 14.84375 33.59375 11.71875 26.5625 
z
M 26.953125 42.578125 
Q 36.328125 42.578125 40.421875 36.328125 
Q 44.53125 30.078125 44.53125 22.265625 
Q 44.53125 10.546875 38.859375 4.875 
Q 33.203125 -0.78125 25.78125 -0.78125 
Q 15.234375 -0.78125 9.765625 7.21875 
Q 4.296875 15.234375 4.296875 30.46875 
Q 4.296875 48.4375 10.9375 58 
Q 17.578125 67.578125 28.90625 67.578125 
Q 34.375 67.578125 37.6875 64.453125 
Q 41.015625 61.328125 41.015625 58.984375 
Q 41.015625 56.640625 40.03125 55.46875 
Q 39.0625 54.296875 36.71875 54.296875 
Q 34.765625 54.296875 33.78125 55.265625 
Q 32.8125 56.25 32.8125 58.203125 
Q 32.8125 58.984375 33 59.765625 
Q 33.203125 60.546875 33.203125 61.328125 
Q 33.203125 62.890625 32.03125 63.859375 
Q 30.859375 64.84375 27.734375 64.84375 
Q 21.09375 64.84375 16.40625 58.78125 
Q 11.71875 52.734375 11.71875 32.421875 
Q 14.0625 37.5 18.15625 40.03125 
Q 22.265625 42.578125 26.953125 42.578125 
z
" id="FangSong-54"/>
       </defs>
       <use xlink:href="#FangSong-54"/>
       <use x="50" xlink:href="#FangSong-48"/>
      </g>
     </g>
    </g>
    <g id="xtick_5">
     <g id="line2d_5">
      <g>
       <use style="stroke:#000000;stroke-width:0.8;" x="612.875113" xlink:href="#m1896344d8b" y="531.285"/>
      </g>
     </g>
     <g id="text_5">
      <!-- 80 -->
      <g transform="translate(602.875113 552.269375)scale(0.2 -0.2)">
       <defs>
        <path d="M 9.375 16.015625 
Q 9.375 9.765625 13.46875 5.859375 
Q 17.578125 1.953125 23.828125 1.953125 
Q 31.25 1.953125 34.5625 5.859375 
Q 37.890625 9.765625 37.890625 15.625 
Q 37.890625 20.703125 33.203125 25.390625 
Q 28.515625 30.078125 19.140625 33.984375 
Q 14.453125 30.859375 11.90625 26.171875 
Q 9.375 21.484375 9.375 16.015625 
z
M 43.75 16.796875 
Q 43.75 9.375 38.28125 4.296875 
Q 32.8125 -0.78125 23.828125 -0.78125 
Q 15.625 -0.78125 9.765625 4.296875 
Q 3.90625 9.375 3.90625 16.015625 
Q 3.90625 22.65625 7.21875 27.34375 
Q 10.546875 32.03125 16.796875 35.546875 
Q 11.328125 38.28125 8.390625 42.375 
Q 5.46875 46.484375 5.46875 51.5625 
Q 5.46875 58.203125 10.546875 62.890625 
Q 15.625 67.578125 24.609375 67.578125 
Q 32.8125 67.578125 37.890625 62.890625 
Q 42.96875 58.203125 42.96875 51.5625 
Q 42.96875 46.875 40.03125 42.765625 
Q 37.109375 38.671875 30.859375 35.546875 
Q 37.5 31.640625 40.625 26.953125 
Q 43.75 22.265625 43.75 16.796875 
z
M 37.5 51.171875 
Q 37.5 56.640625 34.375 60.734375 
Q 31.25 64.84375 24.609375 64.84375 
Q 17.1875 64.84375 14.0625 60.9375 
Q 10.9375 57.03125 10.9375 52.734375 
Q 10.9375 48.4375 15.421875 44.328125 
Q 19.921875 40.234375 28.125 37.109375 
Q 32.8125 39.453125 35.15625 42.96875 
Q 37.5 46.484375 37.5 51.171875 
z
" id="FangSong-56"/>
       </defs>
       <use xlink:href="#FangSong-56"/>
       <use x="50" xlink:href="#FangSong-48"/>
      </g>
     </g>
    </g>
    <g id="xtick_6">
     <g id="line2d_6">
      <g>
       <use style="stroke:#000000;stroke-width:0.8;" x="736.789061" xlink:href="#m1896344d8b" y="531.285"/>
      </g>
     </g>
     <g id="text_6">
      <!-- 100 -->
      <g transform="translate(721.789061 552.269375)scale(0.2 -0.2)">
       <defs>
        <path d="M 28.125 67.96875 
L 28.125 8.59375 
Q 28.125 5.46875 30.078125 3.90625 
Q 32.03125 2.34375 35.546875 2.34375 
L 39.453125 2.34375 
L 39.453125 0 
L 10.9375 0 
L 10.9375 2.34375 
L 14.453125 2.34375 
Q 18.359375 2.34375 20.109375 3.90625 
Q 21.875 5.46875 21.875 8.59375 
L 21.875 55.859375 
Q 21.875 57.421875 20.890625 58.390625 
Q 19.921875 59.375 17.96875 59.375 
L 10.9375 59.375 
L 10.9375 61.71875 
L 14.453125 61.71875 
Q 19.140625 61.71875 22.0625 63.28125 
Q 25 64.84375 26.5625 67.96875 
z
" id="FangSong-49"/>
       </defs>
       <use xlink:href="#FangSong-49"/>
       <use x="50" xlink:href="#FangSong-48"/>
       <use x="100" xlink:href="#FangSong-48"/>
      </g>
     </g>
    </g>
    <g id="xtick_7">
     <g id="line2d_7">
      <g>
       <use style="stroke:#000000;stroke-width:0.8;" x="860.70301" xlink:href="#m1896344d8b" y="531.285"/>
      </g>
     </g>
     <g id="text_7">
      <!-- 120 -->
      <g transform="translate(845.70301 552.269375)scale(0.2 -0.2)">
       <use xlink:href="#FangSong-49"/>
       <use x="50" xlink:href="#FangSong-50"/>
       <use x="100" xlink:href="#FangSong-48"/>
      </g>
     </g>
    </g>
    <g id="text_8">
     <!-- 日期 -->
     <g transform="translate(503.0375 574.706875)scale(0.2 -0.2)">
      <defs>
       <path d="M 75.390625 76.5625 
L 80.46875 72.265625 
L 77.34375 69.140625 
Q 75 8.203125 73.625 0.578125 
Q 72.265625 -7.03125 71.28125 -5.078125 
Q 70.3125 -3.125 69.53125 4.6875 
L 33.203125 2.34375 
Q 33.59375 -8.203125 31.640625 -5.078125 
L 27.734375 1.5625 
Q 30.078125 3.90625 29.6875 10.546875 
L 29.296875 63.671875 
Q 29.296875 69.140625 27.734375 76.171875 
L 28.90625 76.5625 
L 32.421875 68.75 
L 72.65625 72.265625 
z
M 32.8125 39.84375 
Q 61.71875 42.1875 63.671875 43.75 
L 67.96875 39.453125 
Q 60.546875 39.0625 32.8125 35.9375 
L 33.203125 5.859375 
Q 62.109375 7.421875 65.625 8.59375 
L 69.921875 4.6875 
Q 71.484375 7.8125 73.828125 68.75 
L 32.421875 64.84375 
L 32.8125 39.84375 
z
" id="FangSong-26085"/>
       <path d="M 65.234375 29.6875 
Q 75.78125 31.25 77.34375 32.421875 
L 81.25 28.515625 
Q 78.125 28.125 64.84375 26.171875 
Q 63.671875 16.015625 58.984375 6.4375 
Q 54.296875 -3.125 46.875 -10.546875 
L 45.3125 -9.375 
Q 51.5625 -2.34375 55.859375 7.421875 
Q 59.375 14.84375 60.546875 22.65625 
Q 54.296875 22.265625 35.546875 19.53125 
Q 16.40625 16.796875 11.328125 15.625 
L 6.640625 19.53125 
Q 14.453125 19.921875 23.046875 21.484375 
L 23.046875 56.640625 
Q 17.1875 55.859375 14.453125 55.078125 
L 9.375 58.984375 
Q 16.40625 58.984375 23.046875 60.15625 
L 23.046875 67.1875 
Q 23.046875 75 20.703125 78.125 
L 21.484375 79.296875 
L 28.125 74.21875 
Q 26.171875 74.21875 26.5625 67.1875 
L 26.5625 60.546875 
L 43.75 63.28125 
L 43.75 71.09375 
Q 43.75 76.953125 41.796875 80.859375 
L 42.578125 81.640625 
L 49.21875 76.5625 
Q 46.875 76.171875 47.265625 70.703125 
L 47.265625 63.671875 
Q 52.34375 64.453125 53.515625 65.234375 
L 57.8125 60.9375 
Q 51.5625 60.546875 47.265625 59.765625 
L 46.875 24.609375 
Q 54.296875 25.78125 57.03125 26.5625 
L 60.9375 25 
Q 62.5 39.453125 62.5 53.125 
Q 62.5 67.1875 60.546875 72.65625 
L 62.109375 73.046875 
L 65.234375 66.015625 
L 81.640625 69.140625 
L 83.59375 73.046875 
L 88.671875 69.53125 
L 85.9375 66.40625 
L 85.9375 4.6875 
Q 85.9375 -5.078125 83.203125 -10.546875 
Q 78.515625 -4.296875 68.75 3.515625 
L 69.53125 4.6875 
L 81.640625 -2.34375 
Q 82.421875 1.171875 82.421875 6.25 
L 82.421875 65.625 
L 66.40625 62.5 
L 66.40625 47.65625 
Q 74.609375 49.21875 77.34375 50.390625 
L 80.859375 46.875 
Q 76.171875 46.09375 66.40625 44.140625 
Q 66.40625 37.5 65.234375 29.6875 
z
M 26.5625 35.9375 
Q 35.546875 36.71875 38.671875 37.890625 
L 41.796875 34.375 
Q 37.890625 33.984375 26.5625 32.421875 
L 26.5625 22.265625 
L 42.96875 24.21875 
L 43.359375 59.375 
L 26.5625 57.03125 
L 26.5625 47.65625 
Q 34.765625 48.828125 37.890625 50 
L 41.40625 46.484375 
Q 37.890625 46.09375 26.5625 44.140625 
z
M 6.640625 -5.859375 
Q 15.625 1.5625 20.5 6.828125 
Q 25.390625 12.109375 25.390625 15.234375 
L 26.5625 15.625 
L 29.296875 8.59375 
Q 27.734375 8.59375 22.265625 3.515625 
Q 16.796875 -1.5625 7.421875 -7.421875 
z
M 48.4375 1.171875 
Q 44.140625 8.59375 39.453125 16.015625 
L 40.234375 16.796875 
Q 45.703125 12.5 50.390625 7.8125 
Q 50 4.296875 48.4375 1.171875 
z
" id="FangSong-26399"/>
      </defs>
      <use xlink:href="#FangSong-26085"/>
      <use x="100" xlink:href="#FangSong-26399"/>
     </g>
    </g>
   </g>
   <g id="matplotlib.axis_2">
    <g id="ytick_1">
     <g id="line2d_8">
      <defs>
       <path d="M 0 0 
L -3.5 0 
" id="m0c904edd45" style="stroke:#000000;stroke-width:0.8;"/>
      </defs>
      <g>
       <use style="stroke:#000000;stroke-width:0.8;" x="76.6375" xlink:href="#m0c904edd45" y="508.76338"/>
      </g>
     </g>
     <g id="text_9">
      <!-- 0 -->
      <g transform="translate(59.6375 515.755567)scale(0.2 -0.2)">
       <use xlink:href="#FangSong-48"/>
      </g>
     </g>
    </g>
    <g id="ytick_2">
     <g id="line2d_9">
      <g>
       <use style="stroke:#000000;stroke-width:0.8;" x="76.6375" xlink:href="#m0c904edd45" y="429.573436"/>
      </g>
     </g>
     <g id="text_10">
      <!-- 500 -->
      <g transform="translate(39.6375 436.565623)scale(0.2 -0.2)">
       <defs>
        <path d="M 26.5625 42.96875 
Q 33.984375 42.96875 38.671875 37.296875 
Q 43.359375 31.640625 43.359375 22.265625 
Q 43.359375 11.71875 38.46875 5.46875 
Q 33.59375 -0.78125 23.4375 -0.78125 
Q 16.40625 -0.78125 10.9375 3.3125 
Q 5.46875 7.421875 5.46875 13.28125 
Q 5.46875 15.625 6.828125 17.375 
Q 8.203125 19.140625 10.546875 19.140625 
Q 12.890625 19.140625 13.671875 17.578125 
Q 14.453125 16.015625 14.453125 14.84375 
Q 14.453125 12.5 13.28125 11.125 
Q 12.109375 9.765625 12.109375 8.203125 
Q 12.109375 5.078125 15.8125 3.515625 
Q 19.53125 1.953125 23.828125 1.953125 
Q 30.078125 1.953125 33.390625 7.03125 
Q 36.71875 12.109375 36.71875 21.484375 
Q 36.71875 29.296875 33.78125 34.171875 
Q 30.859375 39.0625 25 39.0625 
Q 20.703125 39.0625 17.578125 37.5 
Q 14.453125 35.9375 11.71875 30.859375 
L 8.203125 31.25 
L 10.15625 66.796875 
L 42.1875 66.796875 
L 41.015625 60.9375 
L 12.890625 60.9375 
L 11.328125 35.15625 
Q 15.234375 40.625 18.9375 41.796875 
Q 22.65625 42.96875 26.5625 42.96875 
z
" id="FangSong-53"/>
       </defs>
       <use xlink:href="#FangSong-53"/>
       <use x="50" xlink:href="#FangSong-48"/>
       <use x="100" xlink:href="#FangSong-48"/>
      </g>
     </g>
    </g>
    <g id="ytick_3">
     <g id="line2d_10">
      <g>
       <use style="stroke:#000000;stroke-width:0.8;" x="76.6375" xlink:href="#m0c904edd45" y="350.383492"/>
      </g>
     </g>
     <g id="text_11">
      <!-- 1000 -->
      <g transform="translate(29.6375 357.375679)scale(0.2 -0.2)">
       <use xlink:href="#FangSong-49"/>
       <use x="50" xlink:href="#FangSong-48"/>
       <use x="100" xlink:href="#FangSong-48"/>
       <use x="150" xlink:href="#FangSong-48"/>
      </g>
     </g>
    </g>
    <g id="ytick_4">
     <g id="line2d_11">
      <g>
       <use style="stroke:#000000;stroke-width:0.8;" x="76.6375" xlink:href="#m0c904edd45" y="271.193547"/>
      </g>
     </g>
     <g id="text_12">
      <!-- 1500 -->
      <g transform="translate(29.6375 278.185735)scale(0.2 -0.2)">
       <use xlink:href="#FangSong-49"/>
       <use x="50" xlink:href="#FangSong-53"/>
       <use x="100" xlink:href="#FangSong-48"/>
       <use x="150" xlink:href="#FangSong-48"/>
      </g>
     </g>
    </g>
    <g id="ytick_5">
     <g id="line2d_12">
      <g>
       <use style="stroke:#000000;stroke-width:0.8;" x="76.6375" xlink:href="#m0c904edd45" y="192.003603"/>
      </g>
     </g>
     <g id="text_13">
      <!-- 2000 -->
      <g transform="translate(29.6375 198.995791)scale(0.2 -0.2)">
       <use xlink:href="#FangSong-50"/>
       <use x="50" xlink:href="#FangSong-48"/>
       <use x="100" xlink:href="#FangSong-48"/>
       <use x="150" xlink:href="#FangSong-48"/>
      </g>
     </g>
    </g>
    <g id="ytick_6">
     <g id="line2d_13">
      <g>
       <use style="stroke:#000000;stroke-width:0.8;" x="76.6375" xlink:href="#m0c904edd45" y="112.813659"/>
      </g>
     </g>
     <g id="text_14">
      <!-- 2500 -->
      <g transform="translate(29.6375 119.805847)scale(0.2 -0.2)">
       <use xlink:href="#FangSong-50"/>
       <use x="50" xlink:href="#FangSong-53"/>
       <use x="100" xlink:href="#FangSong-48"/>
       <use x="150" xlink:href="#FangSong-48"/>
      </g>
     </g>
    </g>
    <g id="ytick_7">
     <g id="line2d_14">
      <g>
       <use style="stroke:#000000;stroke-width:0.8;" x="76.6375" xlink:href="#m0c904edd45" y="33.623715"/>
      </g>
     </g>
     <g id="text_15">
      <!-- 3000 -->
      <g transform="translate(29.6375 40.615903)scale(0.2 -0.2)">
       <defs>
        <path d="M 43.359375 17.96875 
Q 43.359375 10.546875 37.890625 4.875 
Q 32.421875 -0.78125 22.65625 -0.78125 
Q 15.625 -0.78125 10.546875 3.125 
Q 5.46875 7.03125 5.46875 12.109375 
Q 5.46875 14.453125 7.03125 16.203125 
Q 8.59375 17.96875 10.15625 17.96875 
Q 12.5 17.96875 13.46875 16.203125 
Q 14.453125 14.453125 14.453125 13.28125 
Q 14.453125 11.328125 13.671875 9.953125 
Q 12.890625 8.59375 12.890625 7.421875 
Q 12.890625 5.078125 15.8125 3.515625 
Q 18.75 1.953125 22.265625 1.953125 
Q 29.296875 1.953125 32.8125 6.046875 
Q 36.328125 10.15625 36.328125 18.75 
Q 36.328125 25.78125 32.609375 30.078125 
Q 28.90625 34.375 18.75 34.375 
L 18.75 37.109375 
Q 26.5625 37.109375 30.265625 40.8125 
Q 33.984375 44.53125 33.984375 51.171875 
Q 33.984375 56.640625 31.046875 60.734375 
Q 28.125 64.84375 21.875 64.84375 
Q 19.140625 64.84375 16.015625 63.46875 
Q 12.890625 62.109375 12.890625 58.984375 
Q 12.890625 55.859375 13.671875 55.078125 
Q 14.453125 54.296875 14.453125 53.125 
Q 14.453125 51.171875 13.671875 50 
Q 12.890625 48.828125 10.9375 48.828125 
Q 9.375 48.828125 8 50 
Q 6.640625 51.171875 6.640625 54.296875 
Q 6.640625 60.15625 11.71875 63.859375 
Q 16.796875 67.578125 23.4375 67.578125 
Q 31.25 67.578125 35.9375 62.6875 
Q 40.625 57.8125 40.625 52.34375 
Q 40.625 46.484375 37.6875 42.375 
Q 34.765625 38.28125 28.515625 36.328125 
Q 37.109375 33.203125 40.234375 28.125 
Q 43.359375 23.046875 43.359375 17.96875 
z
" id="FangSong-51"/>
       </defs>
       <use xlink:href="#FangSong-51"/>
       <use x="50" xlink:href="#FangSong-48"/>
       <use x="100" xlink:href="#FangSong-48"/>
       <use x="150" xlink:href="#FangSong-48"/>
      </g>
     </g>
    </g>
    <g id="text_16">
     <!-- 出库量 -->
     <g transform="translate(22.746875 311.805)rotate(-90)scale(0.2 -0.2)">
      <defs>
       <path d="M 79.296875 28.90625 
L 85.546875 23.4375 
Q 83.984375 24.21875 83.203125 18.15625 
Q 82.421875 12.109375 81.4375 5.65625 
Q 80.46875 -0.78125 79.6875 -4.09375 
Q 78.90625 -7.421875 77.734375 -7.8125 
Q 76.5625 -8.203125 76.5625 -0.78125 
L 23.4375 -4.296875 
L 20.703125 -7.03125 
L 16.796875 -1.953125 
L 19.921875 -0.78125 
L 19.53125 16.40625 
Q 19.140625 21.875 16.796875 24.21875 
L 17.578125 25.390625 
L 24.609375 20.3125 
Q 22.65625 18.75 23.046875 12.890625 
L 23.4375 -0.78125 
L 48.4375 0.78125 
L 48.828125 34.765625 
L 28.125 32.8125 
L 25.390625 30.46875 
L 21.484375 35.15625 
L 24.21875 36.71875 
L 23.828125 53.515625 
Q 24.21875 59.765625 21.09375 63.28125 
L 21.875 64.453125 
L 28.90625 59.375 
Q 27.34375 58.59375 27.34375 53.515625 
L 27.734375 36.328125 
L 48.828125 38.28125 
L 49.21875 67.1875 
Q 49.609375 76.953125 46.484375 79.6875 
L 47.65625 80.859375 
L 55.078125 74.21875 
Q 52.34375 72.65625 52.734375 66.796875 
L 52.34375 38.671875 
L 74.609375 40.625 
Q 76.171875 51.171875 77.140625 57.8125 
Q 78.125 64.453125 76.171875 66.015625 
L 77.34375 66.796875 
L 82.421875 61.71875 
Q 81.25 60.9375 80.46875 55.46875 
Q 79.6875 50 78.703125 43.359375 
Q 77.734375 36.71875 76.953125 33.984375 
Q 76.171875 31.25 75.390625 31.4375 
Q 74.609375 31.640625 74.21875 37.109375 
L 52.34375 35.15625 
L 51.953125 1.171875 
L 76.953125 2.734375 
Q 78.90625 13.671875 79.6875 19.921875 
Q 80.46875 26.171875 78.515625 28.125 
z
" id="FangSong-20986"/>
       <path d="M 55.078125 -3.515625 
Q 57.03125 -0.78125 56.640625 2.34375 
L 56.640625 12.890625 
Q 33.203125 10.9375 30.46875 9.765625 
L 25.390625 14.453125 
Q 31.640625 14.0625 56.640625 16.40625 
L 56.640625 27.734375 
L 40.234375 25.78125 
L 37.890625 23.828125 
L 33.984375 29.296875 
L 37.109375 30.078125 
L 46.484375 46.484375 
Q 38.28125 45.703125 36.71875 44.921875 
L 31.25 49.21875 
Q 38.671875 49.21875 48.828125 50.390625 
Q 51.171875 55.078125 52.140625 58.78125 
Q 53.125 62.5 52.734375 63.671875 
L 29.296875 61.71875 
Q 28.90625 42.96875 27.34375 33.59375 
Q 25.78125 24.21875 21.671875 14.453125 
Q 17.578125 4.6875 9.375 -4.296875 
L 8.203125 -3.125 
Q 15.234375 5.859375 19.140625 16.40625 
Q 23.046875 26.953125 24.21875 37.109375 
Q 25.390625 47.265625 25.578125 57.21875 
Q 25.78125 67.1875 25 72.265625 
L 26.171875 72.265625 
L 28.90625 65.234375 
L 55.859375 67.1875 
Q 52.34375 74.21875 48.4375 80.46875 
L 49.609375 81.25 
Q 54.6875 76.953125 58.984375 72.65625 
Q 57.8125 69.921875 56.25 67.1875 
Q 79.6875 68.75 82.8125 69.921875 
L 87.5 65.625 
Q 84.375 66.015625 53.515625 63.671875 
L 58.203125 58.203125 
Q 57.03125 58.203125 55.65625 55.859375 
Q 54.296875 53.515625 52.734375 50.390625 
Q 78.125 52.734375 80.078125 53.515625 
L 84.765625 49.21875 
Q 78.90625 49.21875 51.171875 46.484375 
L 41.015625 30.078125 
L 56.640625 31.25 
L 56.640625 36.71875 
Q 57.03125 40.625 55.078125 44.140625 
L 55.859375 45.3125 
L 62.109375 40.234375 
Q 59.765625 38.671875 60.15625 34.765625 
L 60.15625 31.640625 
Q 73.4375 32.8125 75.390625 33.59375 
L 80.078125 29.296875 
Q 76.5625 29.6875 60.15625 28.125 
L 60.15625 16.796875 
Q 86.328125 18.75 85.546875 19.53125 
L 90.234375 15.234375 
Q 83.203125 15.234375 60.15625 13.28125 
L 60.15625 -5.46875 
Q 60.15625 -10.9375 58.59375 -9.765625 
L 55.078125 -3.515625 
z
" id="FangSong-24211"/>
       <path d="M 68.359375 38.28125 
L 71.09375 41.40625 
L 75.78125 36.71875 
L 72.265625 34.375 
L 69.921875 19.140625 
L 72.65625 16.015625 
L 51.5625 14.453125 
L 51.5625 7.03125 
Q 70.3125 8.59375 72.65625 9.375 
L 76.953125 5.859375 
Q 70.703125 5.46875 51.5625 3.90625 
L 51.5625 -3.515625 
Q 78.125 -1.953125 82.03125 -1.171875 
L 87.5 -4.6875 
Q 76.171875 -5.078125 49.796875 -6.640625 
Q 23.4375 -8.203125 19.53125 -8.59375 
L 14.453125 -5.078125 
Q 24.21875 -5.078125 48.046875 -3.515625 
L 48.046875 3.515625 
Q 32.8125 2.734375 30.078125 1.953125 
L 25.78125 5.46875 
Q 32.8125 5.46875 48.046875 6.640625 
L 48.046875 14.453125 
L 32.421875 13.28125 
Q 32.421875 10.15625 31.640625 10.546875 
Q 30.859375 10.9375 27.734375 15.625 
Q 28.90625 17.578125 28.90625 20.3125 
L 28.515625 31.25 
Q 28.515625 35.15625 27.734375 38.28125 
L 28.515625 39.0625 
L 31.640625 35.15625 
z
M 68.359375 75.78125 
L 71.09375 79.6875 
L 75.78125 75.390625 
L 72.65625 72.265625 
L 70.3125 57.421875 
L 73.4375 54.296875 
L 33.59375 51.953125 
Q 33.59375 47.265625 32.609375 48.046875 
Q 31.640625 48.828125 28.515625 53.515625 
Q 30.078125 54.6875 30.078125 57.421875 
L 30.078125 67.578125 
Q 30.46875 73.046875 29.296875 78.125 
L 30.46875 78.515625 
L 33.59375 73.4375 
z
M 33.59375 64.0625 
Q 58.59375 65.625 60.9375 66.40625 
L 65.234375 62.5 
Q 57.8125 62.890625 33.59375 60.9375 
L 33.59375 55.46875 
L 66.40625 57.421875 
L 68.75 72.265625 
L 33.59375 69.921875 
L 33.59375 64.0625 
z
M 91.015625 45.3125 
Q 82.421875 45.3125 50.1875 43.15625 
Q 17.96875 41.015625 12.890625 40.234375 
L 8.203125 44.140625 
Q 16.796875 44.140625 48.046875 46.09375 
Q 79.296875 48.046875 85.9375 49.609375 
z
M 51.5625 27.34375 
Q 57.421875 27.734375 61.328125 28.515625 
L 65.625 25 
Q 60.15625 25 51.5625 23.828125 
L 51.5625 17.96875 
L 66.40625 19.53125 
L 68.75 34.765625 
L 51.5625 33.59375 
L 51.5625 27.34375 
z
M 48.046875 17.96875 
L 48.046875 23.828125 
Q 40.625 23.046875 39.0625 22.265625 
L 34.765625 26.171875 
Q 39.453125 26.171875 48.046875 26.953125 
L 48.046875 33.203125 
L 32.03125 31.640625 
L 32.421875 16.796875 
z
" id="FangSong-37327"/>
      </defs>
      <use xlink:href="#FangSong-20986"/>
      <use x="100" xlink:href="#FangSong-24211"/>
      <use x="200" xlink:href="#FangSong-37327"/>
     </g>
    </g>
   </g>
   <g id="line2d_15">
    <path clip-path="url(#p75f011ff2b)" d="M 117.219318 374.457235 
L 123.415016 402.807235 
L 129.610713 416.269525 
L 135.80641 487.223715 
L 142.002108 408.508911 
L 148.197805 403.282374 
L 154.393503 433.374553 
L 160.5892 408.033771 
L 166.784898 388.711425 
L 172.980595 374.932374 
L 179.176293 393.146061 
L 185.37199 436.858911 
L 191.567687 324.25081 
L 197.763385 433.849693 
L 203.959082 196.12148 
L 210.15478 168.88014 
L 216.350477 255.989078 
L 222.546175 312.372318 
L 228.741872 320.449693 
L 234.937569 397.739078 
L 241.133267 185.510028 
L 247.328964 287.506676 
L 253.524662 425.772318 
L 259.720359 507.97148 
L 265.916057 401.065056 
L 272.111754 468.059749 
L 278.307451 461.091034 
L 284.503149 413.260307 
L 290.698846 478.196061 
L 296.894544 298.276508 
L 303.090241 354.501369 
L 309.285939 438.28433 
L 315.481636 278.320642 
L 321.677333 342.781257 
L 327.873031 389.344944 
L 334.068728 169.513659 
L 340.264426 351.333771 
L 346.460123 446.678464 
L 352.655821 136.570642 
L 358.851518 369.547458 
L 365.047215 236.349972 
L 371.242913 421.496061 
L 377.43861 492.291872 
L 383.634308 289.248855 
L 389.830005 378.258352 
L 396.025703 395.04662 
L 402.2214 300.493827 
L 408.417098 494.98433 
L 414.612795 326.309749 
L 420.808492 295.108911 
L 427.00419 459.032095 
L 433.199887 376.991313 
L 439.395585 488.490754 
L 445.591282 397.105559 
L 451.78698 335.970922 
L 457.982677 305.245223 
L 464.178374 405.499693 
L 470.374072 437.33405 
L 476.569769 250.920922 
L 482.765467 198.022039 
L 488.961164 210.058911 
L 495.156862 264.699972 
L 501.352559 286.873156 
L 507.548256 461.249413 
L 513.743954 341.830978 
L 519.939651 418.486844 
L 526.135349 445.886564 
L 532.331046 367.01338 
L 538.526744 457.923436 
L 544.722441 278.954162 
L 550.918138 494.35081 
L 557.113836 414.052207 
L 563.309533 303.344665 
L 569.505231 433.057793 
L 575.700928 379.208631 
L 581.896626 429.731816 
L 588.092323 240.784609 
L 594.28802 346.265615 
L 600.483718 322.667011 
L 606.679415 55.005 
L 612.875113 374.773994 
L 619.07081 463.625112 
L 625.266508 177.907793 
L 631.462205 467.109469 
L 637.657902 411.359749 
L 643.8536 396.947179 
L 650.049297 450.796341 
L 656.244995 396.472039 
L 662.440692 379.367011 
L 668.63639 459.190475 
L 674.832087 432.265894 
L 681.027785 496.409749 
L 687.223482 252.504721 
L 693.419179 438.12595 
L 699.614877 476.295503 
L 705.810574 405.024553 
L 712.006272 408.350531 
L 718.201969 243.001927 
L 724.397667 386.652486 
L 730.593364 258.048017 
L 736.789061 392.987682 
L 742.984759 169.03852 
L 749.180456 284.655838 
L 755.376154 442.560587 
L 761.571851 429.573436 
L 767.767549 452.38014 
L 773.963246 459.982374 
L 780.158943 508.605 
L 786.354641 331.377905 
L 792.550338 381.901089 
L 798.746036 484.056117 
L 804.941733 421.337682 
L 811.137431 448.737402 
L 817.333128 208.316732 
L 823.528825 445.886564 
L 829.724523 474.394944 
L 835.92022 492.133492 
L 842.115918 440.026508 
L 848.311615 191.845223 
L 854.507313 380.158911 
L 860.70301 372.398296 
L 866.898707 419.437123 
L 873.094405 500.369246 
L 879.290102 282.12176 
L 885.4858 255.672318 
L 891.681497 357.035447 
L 897.877195 95.233492 
L 904.072892 376.516173 
L 910.26859 262.165894 
L 916.464287 406.133212 
L 922.659984 333.595223 
L 928.855682 492.133492 
L 928.855682 492.133492 
" style="fill:none;stroke:#1f77b4;stroke-linecap:square;stroke-width:1.5;"/>
   </g>
   <g id="patch_3">
    <path d="M 76.6375 531.285 
L 76.6375 32.325 
" style="fill:none;stroke:#000000;stroke-linecap:square;stroke-linejoin:miter;stroke-width:0.8;"/>
   </g>
   <g id="patch_4">
    <path d="M 969.4375 531.285 
L 969.4375 32.325 
" style="fill:none;stroke:#000000;stroke-linecap:square;stroke-linejoin:miter;stroke-width:0.8;"/>
   </g>
   <g id="patch_5">
    <path d="M 76.6375 531.285 
L 969.4375 531.285 
" style="fill:none;stroke:#000000;stroke-linecap:square;stroke-linejoin:miter;stroke-width:0.8;"/>
   </g>
   <g id="patch_6">
    <path d="M 76.6375 32.325 
L 969.4375 32.325 
" style="fill:none;stroke:#000000;stroke-linecap:square;stroke-linejoin:miter;stroke-width:0.8;"/>
   </g>
   <g id="text_17">
    <!-- 出库量与日期分布对比图 -->
    <g transform="translate(391.0375 26.325)scale(0.24 -0.24)">
     <defs>
      <path d="M 32.8125 31.640625 
L 28.90625 37.109375 
L 32.03125 39.0625 
L 36.71875 65.234375 
Q 39.0625 77.34375 36.328125 80.078125 
L 37.109375 80.859375 
L 43.75 74.609375 
Q 42.1875 75.390625 40.625 67.1875 
L 39.0625 58.984375 
Q 79.6875 62.5 81.640625 64.0625 
L 87.890625 59.375 
Q 80.46875 59.765625 38.671875 55.46875 
L 35.546875 38.28125 
L 76.5625 41.40625 
L 79.6875 45.703125 
L 85.15625 41.015625 
L 81.640625 37.890625 
Q 77.734375 19.53125 74.21875 8.203125 
Q 70.703125 -3.125 66.40625 -9.375 
Q 61.328125 -1.953125 51.171875 7.03125 
L 51.953125 8.203125 
L 66.015625 -1.953125 
Q 71.875 9.375 77.734375 37.890625 
L 35.546875 34.765625 
z
M 67.578125 20.3125 
Q 60.9375 20.3125 39.25 18.15625 
Q 17.578125 16.015625 14.84375 15.234375 
L 10.546875 19.53125 
Q 16.015625 19.140625 36.328125 21.09375 
Q 56.640625 23.046875 61.71875 24.21875 
z
" id="FangSong-19982"/>
      <path d="M 54.296875 -2.734375 
Q 57.421875 1.953125 63.28125 37.109375 
L 45.3125 35.546875 
Q 41.015625 17.96875 33 7.8125 
Q 25 -2.34375 9.375 -9.375 
L 8.59375 -7.8125 
Q 21.875 -1.171875 29.875 9.375 
Q 37.890625 19.921875 41.015625 35.15625 
Q 31.640625 34.375 29.6875 33.203125 
L 25.78125 37.890625 
Q 31.25 37.5 63.28125 41.015625 
L 66.015625 44.140625 
L 70.3125 39.0625 
L 67.1875 37.5 
Q 64.453125 19.921875 61.71875 7.8125 
Q 58.984375 -4.296875 55.078125 -10.15625 
Q 50 -3.515625 40.625 4.296875 
L 41.40625 5.46875 
L 54.296875 -2.734375 
z
M 76.953125 33.984375 
Q 76.953125 35.9375 70.703125 46.28125 
Q 64.453125 56.640625 57.8125 68.15625 
Q 51.171875 79.6875 48.4375 80.078125 
L 48.828125 81.640625 
L 53.90625 81.25 
Q 53.90625 80.46875 54.296875 79.09375 
Q 54.6875 77.734375 60.15625 68.75 
Q 65.625 59.765625 71.28125 51.171875 
Q 76.953125 42.578125 80.46875 40.234375 
Q 83.984375 37.890625 93.359375 37.5 
L 93.75 35.546875 
L 76.953125 33.984375 
z
M 7.8125 26.953125 
Q 15.625 33.59375 22.265625 42.578125 
Q 28.90625 51.5625 33.390625 60.734375 
Q 37.890625 69.921875 36.328125 73.046875 
L 37.890625 73.4375 
L 41.796875 65.625 
Q 41.015625 66.40625 35.9375 57.421875 
Q 30.46875 47.65625 24.796875 40.625 
Q 19.140625 33.59375 8.984375 25.390625 
z
" id="FangSong-20998"/>
      <path d="M 36.71875 10.9375 
Q 37.109375 3.515625 35.15625 6.640625 
L 31.640625 11.71875 
Q 33.59375 14.453125 33.203125 19.140625 
L 33.203125 32.421875 
Q 33.59375 37.5 32.421875 39.0625 
Q 23.046875 28.90625 8.203125 20.3125 
L 7.421875 21.484375 
Q 27.734375 35.9375 41.796875 57.03125 
Q 20.703125 55.859375 18.75 55.078125 
L 13.671875 59.765625 
Q 19.921875 59.375 43.75 60.9375 
Q 48.828125 69.921875 50.1875 74.796875 
Q 51.5625 79.6875 50.390625 81.25 
L 51.171875 82.03125 
L 56.640625 75.78125 
Q 55.46875 75.78125 53.90625 72.65625 
Q 52.34375 69.53125 48.4375 61.328125 
Q 84.765625 63.671875 87.5 64.84375 
L 92.1875 60.15625 
Q 86.71875 60.546875 51.953125 58.203125 
L 57.421875 53.515625 
Q 55.46875 53.125 55.859375 46.484375 
L 55.859375 40.625 
L 73.4375 42.1875 
L 75.78125 46.09375 
L 80.46875 41.796875 
L 78.125 39.0625 
Q 76.953125 25.390625 75.78125 17.375 
Q 74.609375 9.375 71.875 3.125 
Q 66.796875 10.546875 60.15625 17.1875 
L 60.9375 18.359375 
L 70.703125 11.328125 
Q 72.65625 17.96875 74.21875 38.28125 
L 55.859375 37.109375 
L 55.859375 -1.953125 
Q 56.25 -12.109375 54.296875 -9.375 
L 50 -2.734375 
Q 52.34375 -0.78125 52.34375 4.296875 
L 52.34375 36.71875 
L 36.71875 35.546875 
z
M 52.34375 48.4375 
Q 51.953125 54.296875 51.171875 58.203125 
L 46.875 57.8125 
Q 40.625 48.4375 34.375 41.015625 
L 36.71875 39.0625 
L 52.34375 40.234375 
z
" id="FangSong-24067"/>
      <path d="M 71.09375 -10.15625 
Q 65.234375 -1.953125 56.25 6.25 
L 57.03125 7.421875 
L 69.921875 -1.5625 
Q 71.09375 1.953125 71.09375 8.59375 
L 71.484375 49.609375 
Q 51.5625 46.875 50 46.09375 
L 44.921875 50.390625 
Q 48.046875 49.609375 71.484375 53.125 
L 71.875 69.921875 
Q 72.265625 78.125 69.53125 81.25 
L 70.3125 82.03125 
L 77.34375 76.5625 
Q 75.390625 75.78125 75.390625 69.921875 
L 75 53.515625 
Q 86.328125 55.078125 88.28125 56.25 
L 92.96875 51.953125 
Q 88.28125 51.953125 75 50 
L 74.609375 5.46875 
Q 74.609375 -3.515625 71.09375 -10.15625 
z
M 18.75 49.21875 
L 31.640625 34.765625 
Q 37.109375 46.09375 40.234375 58.59375 
Q 18.359375 55.078125 15.234375 53.90625 
L 10.546875 58.203125 
Q 17.1875 58.203125 40.234375 62.5 
L 42.1875 66.796875 
L 47.65625 62.5 
L 44.53125 59.375 
Q 40.234375 44.140625 34.375 32.03125 
Q 40.625 24.21875 47.265625 16.796875 
Q 45.3125 11.71875 44.53125 10.546875 
Q 39.0625 19.53125 32.421875 28.125 
Q 22.65625 11.328125 8.203125 -1.953125 
L 7.421875 -0.390625 
Q 21.09375 14.0625 30.078125 31.640625 
L 17.578125 48.4375 
z
M 49.609375 41.015625 
Q 55.46875 34.765625 60.9375 28.90625 
Q 60.15625 26.171875 58.203125 22.265625 
Q 54.296875 31.640625 48.4375 40.234375 
z
" id="FangSong-23545"/>
      <path d="M 54.6875 33.203125 
Q 61.328125 37.890625 70.109375 46.484375 
Q 78.90625 55.078125 77.34375 58.59375 
L 78.515625 58.984375 
L 82.03125 50.390625 
Q 80.859375 50.78125 76.171875 46.875 
Q 71.484375 42.96875 66.984375 39.453125 
Q 62.5 35.9375 54.6875 29.6875 
L 54.6875 8.984375 
Q 54.296875 -1.5625 64.84375 -1.5625 
L 75 -1.5625 
Q 82.421875 -1.5625 83.984375 0.1875 
Q 85.546875 1.953125 85.15625 21.09375 
L 87.109375 21.09375 
Q 87.5 12.890625 88.078125 6.4375 
Q 88.671875 0 90.625 -2.734375 
Q 83.984375 -5.078125 75 -5.078125 
L 64.84375 -5.078125 
Q 50.390625 -5.46875 51.171875 8.59375 
L 51.171875 67.1875 
Q 51.171875 76.171875 49.21875 80.46875 
L 50 81.25 
L 56.640625 75.78125 
Q 54.296875 75.390625 54.6875 66.40625 
z
M 23.4375 40.234375 
Q 29.6875 41.015625 36.515625 42.375 
Q 43.359375 43.75 43.75 44.53125 
L 48.046875 40.625 
Q 44.921875 40.234375 36.71875 38.671875 
Q 28.515625 37.109375 27.734375 36.328125 
L 23.4375 39.453125 
L 23.4375 2.34375 
L 45.703125 16.796875 
L 46.484375 16.015625 
Q 24.21875 -1.171875 21.484375 -5.46875 
L 18.75 0 
Q 19.921875 1.171875 19.921875 5.46875 
L 19.921875 61.328125 
Q 19.921875 69.921875 17.96875 74.21875 
L 18.75 75 
L 25.390625 68.75 
Q 23.046875 68.359375 23.4375 61.328125 
z
" id="FangSong-27604"/>
      <path d="M 83.984375 78.90625 
L 88.671875 74.609375 
L 85.15625 71.09375 
Q 82.8125 0.390625 82.21875 -4.296875 
Q 81.640625 -8.984375 80.265625 -8.78125 
Q 78.90625 -8.59375 77.34375 -0.78125 
L 22.265625 -3.125 
Q 22.65625 -10.546875 21.09375 -10.546875 
L 16.796875 -3.125 
Q 17.96875 -0.390625 17.96875 2.734375 
L 17.578125 66.40625 
Q 17.578125 73.828125 16.40625 78.90625 
L 17.96875 79.6875 
L 21.875 71.875 
L 80.859375 75.78125 
z
M 21.875 0 
Q 64.0625 2.34375 72.65625 3.515625 
L 77.734375 0.390625 
Q 78.90625 3.125 79.296875 28.515625 
L 65.234375 26.171875 
Q 66.40625 26.953125 50.390625 40.234375 
Q 38.671875 29.296875 23.046875 22.65625 
L 22.265625 24.21875 
Q 35.546875 31.25 48.046875 42.578125 
Q 45.3125 44.53125 39.453125 50.390625 
Q 36.328125 45.703125 28.90625 38.28125 
L 27.34375 39.453125 
Q 39.0625 53.125 46.09375 69.53125 
L 21.484375 67.96875 
z
M 61.328125 61.71875 
L 65.625 57.421875 
L 62.5 55.46875 
Q 57.421875 46.875 52.734375 42.578125 
Q 62.5 33.984375 66.40625 32.03125 
Q 70.3125 30.078125 79.6875 30.46875 
L 81.640625 71.875 
L 47.65625 69.53125 
L 50.78125 65.234375 
Q 49.21875 64.84375 47.84375 62.6875 
Q 46.484375 60.546875 43.75 56.640625 
L 58.59375 58.984375 
z
M 56.640625 12.109375 
Q 57.03125 7.8125 56.640625 3.90625 
Q 50 10.9375 39.0625 19.921875 
L 40.625 21.484375 
Q 50.78125 15.234375 56.640625 12.109375 
z
M 43.75 51.171875 
Q 43.75 50 45.703125 48.4375 
Q 47.65625 46.875 50 44.53125 
Q 53.90625 48.828125 57.8125 55.46875 
Q 47.65625 53.125 44.921875 52.34375 
L 42.96875 55.078125 
L 40.625 51.171875 
z
M 43.359375 32.8125 
Q 51.5625 28.125 56.640625 26.171875 
Q 57.03125 22.265625 56.640625 19.140625 
Q 51.5625 23.4375 42.1875 30.859375 
z
" id="FangSong-22270"/>
     </defs>
     <use xlink:href="#FangSong-20986"/>
     <use x="100" xlink:href="#FangSong-24211"/>
     <use x="200" xlink:href="#FangSong-37327"/>
     <use x="300" xlink:href="#FangSong-19982"/>
     <use x="400" xlink:href="#FangSong-26085"/>
     <use x="500" xlink:href="#FangSong-26399"/>
     <use x="600" xlink:href="#FangSong-20998"/>
     <use x="700" xlink:href="#FangSong-24067"/>
     <use x="800" xlink:href="#FangSong-23545"/>
     <use x="900" xlink:href="#FangSong-27604"/>
     <use x="1000" xlink:href="#FangSong-22270"/>
    </g>
   </g>
  </g>
 </g>
 <defs>
  <clipPath id="p75f011ff2b">
   <rect height="498.96" width="892.8" x="76.6375" y="32.325"/>
  </clipPath>
 </defs>
</svg>
