<?xml version="1.0" encoding="utf-8" standalone="no"?>
<!DOCTYPE svg PUBLIC "-//W3C//DTD SVG 1.1//EN"
  "http://www.w3.org/Graphics/SVG/1.1/DTD/svg11.dtd">
<!-- Created with matplotlib (https://matplotlib.org/) -->
<svg height="326.902625pt" version="1.1" viewBox="0 0 768.624375 326.902625" width="768.624375pt" xmlns="http://www.w3.org/2000/svg" xmlns:xlink="http://www.w3.org/1999/xlink">
 <metadata>
  <rdf:RDF xmlns:cc="http://creativecommons.org/ns#" xmlns:dc="http://purl.org/dc/elements/1.1/" xmlns:rdf="http://www.w3.org/1999/02/22-rdf-syntax-ns#">
   <cc:Work>
    <dc:type rdf:resource="http://purl.org/dc/dcmitype/StillImage"/>
    <dc:date>2021-05-14T13:36:32.442893</dc:date>
    <dc:format>image/svg+xml</dc:format>
    <dc:creator>
     <cc:Agent>
      <dc:title>Matplotlib v3.3.2, https://matplotlib.org/</dc:title>
     </cc:Agent>
    </dc:creator>
   </cc:Work>
  </rdf:RDF>
 </metadata>
 <defs>
  <style type="text/css">*{stroke-linecap:butt;stroke-linejoin:round;}</style>
 </defs>
 <g id="figure_1">
  <g id="patch_1">
   <path d="M 0 326.902625 
L 768.624375 326.902625 
L 768.624375 0 
L 0 0 
z
" style="fill:#ffffff;"/>
  </g>
  <g id="axes_1">
   <g id="patch_2">
    <path d="M 57.184375 273.312 
L 414.304375 273.312 
L 414.304375 7.2 
L 57.184375 7.2 
z
" style="fill:#ffffff;"/>
   </g>
   <g id="patch_3">
    <path clip-path="url(#p3715b96b8a)" d="M 73.417102 273.312 
L 76.197869 273.312 
L 76.197869 36.768 
L 73.417102 36.768 
z
" style="fill:#009966;"/>
   </g>
   <g id="patch_4">
    <path clip-path="url(#p3715b96b8a)" d="M 76.893061 273.312 
L 79.673828 273.312 
L 79.673828 57.4656 
L 76.893061 57.4656 
z
" style="fill:#009966;"/>
   </g>
   <g id="patch_5">
    <path clip-path="url(#p3715b96b8a)" d="M 80.36902 273.312 
L 83.149787 273.312 
L 83.149787 125.472 
L 80.36902 125.472 
z
" style="fill:#009966;"/>
   </g>
   <g id="patch_6">
    <path clip-path="url(#p3715b96b8a)" d="M 83.844978 273.312 
L 86.625745 273.312 
L 86.625745 125.472 
L 83.844978 125.472 
z
" style="fill:#009966;"/>
   </g>
   <g id="patch_7">
    <path clip-path="url(#p3715b96b8a)" d="M 87.320937 273.312 
L 90.101704 273.312 
L 90.101704 149.1264 
L 87.320937 149.1264 
z
" style="fill:#009966;"/>
   </g>
   <g id="patch_8">
    <path clip-path="url(#p3715b96b8a)" d="M 90.796896 273.312 
L 93.577663 273.312 
L 93.577663 178.6944 
L 90.796896 178.6944 
z
" style="fill:#009966;"/>
   </g>
   <g id="patch_9">
    <path clip-path="url(#p3715b96b8a)" d="M 94.272855 273.312 
L 97.053622 273.312 
L 97.053622 178.6944 
L 94.272855 178.6944 
z
" style="fill:#009966;"/>
   </g>
   <g id="patch_10">
    <path clip-path="url(#p3715b96b8a)" d="M 97.748813 273.312 
L 100.52958 273.312 
L 100.52958 178.6944 
L 97.748813 178.6944 
z
" style="fill:#009966;"/>
   </g>
   <g id="patch_11">
    <path clip-path="url(#p3715b96b8a)" d="M 101.224772 273.312 
L 104.005539 273.312 
L 104.005539 202.3488 
L 101.224772 202.3488 
z
" style="fill:#009966;"/>
   </g>
   <g id="patch_12">
    <path clip-path="url(#p3715b96b8a)" d="M 104.700731 273.312 
L 107.481498 273.312 
L 107.481498 214.176 
L 104.700731 214.176 
z
" style="fill:#009966;"/>
   </g>
   <g id="patch_13">
    <path clip-path="url(#p3715b96b8a)" d="M 108.17669 273.312 
L 110.957457 273.312 
L 110.957457 214.176 
L 108.17669 214.176 
z
" style="fill:#009966;"/>
   </g>
   <g id="patch_14">
    <path clip-path="url(#p3715b96b8a)" d="M 111.652648 273.312 
L 114.433415 273.312 
L 114.433415 214.176 
L 111.652648 214.176 
z
" style="fill:#009966;"/>
   </g>
   <g id="patch_15">
    <path clip-path="url(#p3715b96b8a)" d="M 115.128607 273.312 
L 117.909374 273.312 
L 117.909374 214.176 
L 115.128607 214.176 
z
" style="fill:#009966;"/>
   </g>
   <g id="patch_16">
    <path clip-path="url(#p3715b96b8a)" d="M 118.604566 273.312 
L 121.385333 273.312 
L 121.385333 214.176 
L 118.604566 214.176 
z
" style="fill:#009966;"/>
   </g>
   <g id="patch_17">
    <path clip-path="url(#p3715b96b8a)" d="M 122.080525 273.312 
L 124.861291 273.312 
L 124.861291 228.96 
L 122.080525 228.96 
z
" style="fill:#009966;"/>
   </g>
   <g id="patch_18">
    <path clip-path="url(#p3715b96b8a)" d="M 125.556483 273.312 
L 128.33725 273.312 
L 128.33725 228.96 
L 125.556483 228.96 
z
" style="fill:#009966;"/>
   </g>
   <g id="patch_19">
    <path clip-path="url(#p3715b96b8a)" d="M 129.032442 273.312 
L 131.813209 273.312 
L 131.813209 231.9168 
L 129.032442 231.9168 
z
" style="fill:#009966;"/>
   </g>
   <g id="patch_20">
    <path clip-path="url(#p3715b96b8a)" d="M 132.508401 273.312 
L 135.289168 273.312 
L 135.289168 237.8304 
L 132.508401 237.8304 
z
" style="fill:#009966;"/>
   </g>
   <g id="patch_21">
    <path clip-path="url(#p3715b96b8a)" d="M 135.984359 273.312 
L 138.765126 273.312 
L 138.765126 237.8304 
L 135.984359 237.8304 
z
" style="fill:#009966;"/>
   </g>
   <g id="patch_22">
    <path clip-path="url(#p3715b96b8a)" d="M 139.460318 273.312 
L 142.241085 273.312 
L 142.241085 237.8304 
L 139.460318 237.8304 
z
" style="fill:#009966;"/>
   </g>
   <g id="patch_23">
    <path clip-path="url(#p3715b96b8a)" d="M 142.936277 273.312 
L 145.717044 273.312 
L 145.717044 240.7872 
L 142.936277 240.7872 
z
" style="fill:#009966;"/>
   </g>
   <g id="patch_24">
    <path clip-path="url(#p3715b96b8a)" d="M 146.412236 273.312 
L 149.193003 273.312 
L 149.193003 243.744 
L 146.412236 243.744 
z
" style="fill:#009966;"/>
   </g>
   <g id="patch_25">
    <path clip-path="url(#p3715b96b8a)" d="M 149.888194 273.312 
L 152.668961 273.312 
L 152.668961 243.744 
L 149.888194 243.744 
z
" style="fill:#009966;"/>
   </g>
   <g id="patch_26">
    <path clip-path="url(#p3715b96b8a)" d="M 153.364153 273.312 
L 156.14492 273.312 
L 156.14492 243.744 
L 153.364153 243.744 
z
" style="fill:#009966;"/>
   </g>
   <g id="patch_27">
    <path clip-path="url(#p3715b96b8a)" d="M 156.840112 273.312 
L 159.620879 273.312 
L 159.620879 243.744 
L 156.840112 243.744 
z
" style="fill:#009966;"/>
   </g>
   <g id="patch_28">
    <path clip-path="url(#p3715b96b8a)" d="M 160.316071 273.312 
L 163.096838 273.312 
L 163.096838 243.744 
L 160.316071 243.744 
z
" style="fill:#009966;"/>
   </g>
   <g id="patch_29">
    <path clip-path="url(#p3715b96b8a)" d="M 163.792029 273.312 
L 166.572796 273.312 
L 166.572796 246.7008 
L 163.792029 246.7008 
z
" style="fill:#009966;"/>
   </g>
   <g id="patch_30">
    <path clip-path="url(#p3715b96b8a)" d="M 167.267988 273.312 
L 170.048755 273.312 
L 170.048755 246.7008 
L 167.267988 246.7008 
z
" style="fill:#009966;"/>
   </g>
   <g id="patch_31">
    <path clip-path="url(#p3715b96b8a)" d="M 170.743947 273.312 
L 173.524714 273.312 
L 173.524714 249.6576 
L 170.743947 249.6576 
z
" style="fill:#009966;"/>
   </g>
   <g id="patch_32">
    <path clip-path="url(#p3715b96b8a)" d="M 174.219905 273.312 
L 177.000672 273.312 
L 177.000672 249.6576 
L 174.219905 249.6576 
z
" style="fill:#009966;"/>
   </g>
   <g id="patch_33">
    <path clip-path="url(#p3715b96b8a)" d="M 177.695864 273.312 
L 180.476631 273.312 
L 180.476631 249.6576 
L 177.695864 249.6576 
z
" style="fill:#009966;"/>
   </g>
   <g id="patch_34">
    <path clip-path="url(#p3715b96b8a)" d="M 181.171823 273.312 
L 183.95259 273.312 
L 183.95259 252.6144 
L 181.171823 252.6144 
z
" style="fill:#009966;"/>
   </g>
   <g id="patch_35">
    <path clip-path="url(#p3715b96b8a)" d="M 184.647782 273.312 
L 187.428549 273.312 
L 187.428549 255.5712 
L 184.647782 255.5712 
z
" style="fill:#009966;"/>
   </g>
   <g id="patch_36">
    <path clip-path="url(#p3715b96b8a)" d="M 188.12374 273.312 
L 190.904507 273.312 
L 190.904507 255.5712 
L 188.12374 255.5712 
z
" style="fill:#009966;"/>
   </g>
   <g id="patch_37">
    <path clip-path="url(#p3715b96b8a)" d="M 191.599699 273.312 
L 194.380466 273.312 
L 194.380466 255.5712 
L 191.599699 255.5712 
z
" style="fill:#009966;"/>
   </g>
   <g id="patch_38">
    <path clip-path="url(#p3715b96b8a)" d="M 195.075658 273.312 
L 197.856425 273.312 
L 197.856425 255.5712 
L 195.075658 255.5712 
z
" style="fill:#009966;"/>
   </g>
   <g id="patch_39">
    <path clip-path="url(#p3715b96b8a)" d="M 198.551617 273.312 
L 201.332384 273.312 
L 201.332384 258.528 
L 198.551617 258.528 
z
" style="fill:#009966;"/>
   </g>
   <g id="patch_40">
    <path clip-path="url(#p3715b96b8a)" d="M 202.027575 273.312 
L 204.808342 273.312 
L 204.808342 258.528 
L 202.027575 258.528 
z
" style="fill:#009966;"/>
   </g>
   <g id="patch_41">
    <path clip-path="url(#p3715b96b8a)" d="M 205.503534 273.312 
L 208.284301 273.312 
L 208.284301 261.4848 
L 205.503534 261.4848 
z
" style="fill:#009966;"/>
   </g>
   <g id="patch_42">
    <path clip-path="url(#p3715b96b8a)" d="M 208.979493 273.312 
L 211.76026 273.312 
L 211.76026 261.4848 
L 208.979493 261.4848 
z
" style="fill:#009966;"/>
   </g>
   <g id="patch_43">
    <path clip-path="url(#p3715b96b8a)" d="M 212.455452 273.312 
L 215.236218 273.312 
L 215.236218 261.4848 
L 212.455452 261.4848 
z
" style="fill:#009966;"/>
   </g>
   <g id="patch_44">
    <path clip-path="url(#p3715b96b8a)" d="M 215.93141 273.312 
L 218.712177 273.312 
L 218.712177 261.4848 
L 215.93141 261.4848 
z
" style="fill:#009966;"/>
   </g>
   <g id="patch_45">
    <path clip-path="url(#p3715b96b8a)" d="M 219.407369 273.312 
L 222.188136 273.312 
L 222.188136 261.4848 
L 219.407369 261.4848 
z
" style="fill:#009966;"/>
   </g>
   <g id="patch_46">
    <path clip-path="url(#p3715b96b8a)" d="M 222.883328 273.312 
L 225.664095 273.312 
L 225.664095 261.4848 
L 222.883328 261.4848 
z
" style="fill:#009966;"/>
   </g>
   <g id="patch_47">
    <path clip-path="url(#p3715b96b8a)" d="M 226.359286 273.312 
L 229.140053 273.312 
L 229.140053 261.4848 
L 226.359286 261.4848 
z
" style="fill:#009966;"/>
   </g>
   <g id="patch_48">
    <path clip-path="url(#p3715b96b8a)" d="M 229.835245 273.312 
L 232.616012 273.312 
L 232.616012 264.4416 
L 229.835245 264.4416 
z
" style="fill:#009966;"/>
   </g>
   <g id="patch_49">
    <path clip-path="url(#p3715b96b8a)" d="M 233.311204 273.312 
L 236.091971 273.312 
L 236.091971 264.4416 
L 233.311204 264.4416 
z
" style="fill:#009966;"/>
   </g>
   <g id="patch_50">
    <path clip-path="url(#p3715b96b8a)" d="M 236.787163 273.312 
L 239.56793 273.312 
L 239.56793 264.4416 
L 236.787163 264.4416 
z
" style="fill:#009966;"/>
   </g>
   <g id="patch_51">
    <path clip-path="url(#p3715b96b8a)" d="M 240.263121 273.312 
L 243.043888 273.312 
L 243.043888 264.4416 
L 240.263121 264.4416 
z
" style="fill:#009966;"/>
   </g>
   <g id="patch_52">
    <path clip-path="url(#p3715b96b8a)" d="M 243.73908 273.312 
L 246.519847 273.312 
L 246.519847 264.4416 
L 243.73908 264.4416 
z
" style="fill:#009966;"/>
   </g>
   <g id="patch_53">
    <path clip-path="url(#p3715b96b8a)" d="M 247.215039 273.312 
L 249.995806 273.312 
L 249.995806 264.4416 
L 247.215039 264.4416 
z
" style="fill:#009966;"/>
   </g>
   <g id="patch_54">
    <path clip-path="url(#p3715b96b8a)" d="M 250.690998 273.312 
L 253.471765 273.312 
L 253.471765 264.4416 
L 250.690998 264.4416 
z
" style="fill:#009966;"/>
   </g>
   <g id="patch_55">
    <path clip-path="url(#p3715b96b8a)" d="M 254.166956 273.312 
L 256.947723 273.312 
L 256.947723 264.4416 
L 254.166956 264.4416 
z
" style="fill:#009966;"/>
   </g>
   <g id="patch_56">
    <path clip-path="url(#p3715b96b8a)" d="M 257.642915 273.312 
L 260.423682 273.312 
L 260.423682 264.4416 
L 257.642915 264.4416 
z
" style="fill:#009966;"/>
   </g>
   <g id="patch_57">
    <path clip-path="url(#p3715b96b8a)" d="M 261.118874 273.312 
L 263.899641 273.312 
L 263.899641 264.4416 
L 261.118874 264.4416 
z
" style="fill:#009966;"/>
   </g>
   <g id="patch_58">
    <path clip-path="url(#p3715b96b8a)" d="M 264.594832 273.312 
L 267.375599 273.312 
L 267.375599 264.4416 
L 264.594832 264.4416 
z
" style="fill:#009966;"/>
   </g>
   <g id="patch_59">
    <path clip-path="url(#p3715b96b8a)" d="M 268.070791 273.312 
L 270.851558 273.312 
L 270.851558 267.3984 
L 268.070791 267.3984 
z
" style="fill:#009966;"/>
   </g>
   <g id="patch_60">
    <path clip-path="url(#p3715b96b8a)" d="M 271.54675 273.312 
L 274.327517 273.312 
L 274.327517 267.3984 
L 271.54675 267.3984 
z
" style="fill:#009966;"/>
   </g>
   <g id="patch_61">
    <path clip-path="url(#p3715b96b8a)" d="M 275.022709 273.312 
L 277.803476 273.312 
L 277.803476 267.3984 
L 275.022709 267.3984 
z
" style="fill:#009966;"/>
   </g>
   <g id="patch_62">
    <path clip-path="url(#p3715b96b8a)" d="M 278.498667 273.312 
L 281.279434 273.312 
L 281.279434 267.3984 
L 278.498667 267.3984 
z
" style="fill:#009966;"/>
   </g>
   <g id="patch_63">
    <path clip-path="url(#p3715b96b8a)" d="M 281.974626 273.312 
L 284.755393 273.312 
L 284.755393 267.3984 
L 281.974626 267.3984 
z
" style="fill:#009966;"/>
   </g>
   <g id="patch_64">
    <path clip-path="url(#p3715b96b8a)" d="M 285.450585 273.312 
L 288.231352 273.312 
L 288.231352 267.3984 
L 285.450585 267.3984 
z
" style="fill:#009966;"/>
   </g>
   <g id="patch_65">
    <path clip-path="url(#p3715b96b8a)" d="M 288.926544 273.312 
L 291.707311 273.312 
L 291.707311 267.3984 
L 288.926544 267.3984 
z
" style="fill:#009966;"/>
   </g>
   <g id="patch_66">
    <path clip-path="url(#p3715b96b8a)" d="M 292.402502 273.312 
L 295.183269 273.312 
L 295.183269 267.3984 
L 292.402502 267.3984 
z
" style="fill:#009966;"/>
   </g>
   <g id="patch_67">
    <path clip-path="url(#p3715b96b8a)" d="M 295.878461 273.312 
L 298.659228 273.312 
L 298.659228 267.3984 
L 295.878461 267.3984 
z
" style="fill:#009966;"/>
   </g>
   <g id="patch_68">
    <path clip-path="url(#p3715b96b8a)" d="M 299.35442 273.312 
L 302.135187 273.312 
L 302.135187 267.3984 
L 299.35442 267.3984 
z
" style="fill:#009966;"/>
   </g>
   <g id="patch_69">
    <path clip-path="url(#p3715b96b8a)" d="M 302.830379 273.312 
L 305.611145 273.312 
L 305.611145 267.3984 
L 302.830379 267.3984 
z
" style="fill:#009966;"/>
   </g>
   <g id="patch_70">
    <path clip-path="url(#p3715b96b8a)" d="M 306.306337 273.312 
L 309.087104 273.312 
L 309.087104 270.3552 
L 306.306337 270.3552 
z
" style="fill:#009966;"/>
   </g>
   <g id="patch_71">
    <path clip-path="url(#p3715b96b8a)" d="M 309.782296 273.312 
L 312.563063 273.312 
L 312.563063 270.3552 
L 309.782296 270.3552 
z
" style="fill:#009966;"/>
   </g>
   <g id="patch_72">
    <path clip-path="url(#p3715b96b8a)" d="M 313.258255 273.312 
L 316.039022 273.312 
L 316.039022 270.3552 
L 313.258255 270.3552 
z
" style="fill:#009966;"/>
   </g>
   <g id="patch_73">
    <path clip-path="url(#p3715b96b8a)" d="M 316.734213 273.312 
L 319.51498 273.312 
L 319.51498 270.3552 
L 316.734213 270.3552 
z
" style="fill:#009966;"/>
   </g>
   <g id="patch_74">
    <path clip-path="url(#p3715b96b8a)" d="M 320.210172 273.312 
L 322.990939 273.312 
L 322.990939 270.3552 
L 320.210172 270.3552 
z
" style="fill:#009966;"/>
   </g>
   <g id="patch_75">
    <path clip-path="url(#p3715b96b8a)" d="M 323.686131 273.312 
L 326.466898 273.312 
L 326.466898 270.3552 
L 323.686131 270.3552 
z
" style="fill:#009966;"/>
   </g>
   <g id="patch_76">
    <path clip-path="url(#p3715b96b8a)" d="M 327.16209 273.312 
L 329.942857 273.312 
L 329.942857 270.3552 
L 327.16209 270.3552 
z
" style="fill:#009966;"/>
   </g>
   <g id="patch_77">
    <path clip-path="url(#p3715b96b8a)" d="M 330.638048 273.312 
L 333.418815 273.312 
L 333.418815 270.3552 
L 330.638048 270.3552 
z
" style="fill:#009966;"/>
   </g>
   <g id="patch_78">
    <path clip-path="url(#p3715b96b8a)" d="M 334.114007 273.312 
L 336.894774 273.312 
L 336.894774 270.3552 
L 334.114007 270.3552 
z
" style="fill:#009966;"/>
   </g>
   <g id="patch_79">
    <path clip-path="url(#p3715b96b8a)" d="M 337.589966 273.312 
L 340.370733 273.312 
L 340.370733 270.3552 
L 337.589966 270.3552 
z
" style="fill:#009966;"/>
   </g>
   <g id="patch_80">
    <path clip-path="url(#p3715b96b8a)" d="M 341.065925 273.312 
L 343.846692 273.312 
L 343.846692 270.3552 
L 341.065925 270.3552 
z
" style="fill:#009966;"/>
   </g>
   <g id="patch_81">
    <path clip-path="url(#p3715b96b8a)" d="M 344.541883 273.312 
L 347.32265 273.312 
L 347.32265 270.3552 
L 344.541883 270.3552 
z
" style="fill:#009966;"/>
   </g>
   <g id="patch_82">
    <path clip-path="url(#p3715b96b8a)" d="M 348.017842 273.312 
L 350.798609 273.312 
L 350.798609 270.3552 
L 348.017842 270.3552 
z
" style="fill:#009966;"/>
   </g>
   <g id="patch_83">
    <path clip-path="url(#p3715b96b8a)" d="M 351.493801 273.312 
L 354.274568 273.312 
L 354.274568 270.3552 
L 351.493801 270.3552 
z
" style="fill:#009966;"/>
   </g>
   <g id="patch_84">
    <path clip-path="url(#p3715b96b8a)" d="M 354.969759 273.312 
L 357.750526 273.312 
L 357.750526 270.3552 
L 354.969759 270.3552 
z
" style="fill:#009966;"/>
   </g>
   <g id="patch_85">
    <path clip-path="url(#p3715b96b8a)" d="M 358.445718 273.312 
L 361.226485 273.312 
L 361.226485 270.3552 
L 358.445718 270.3552 
z
" style="fill:#009966;"/>
   </g>
   <g id="patch_86">
    <path clip-path="url(#p3715b96b8a)" d="M 361.921677 273.312 
L 364.702444 273.312 
L 364.702444 270.3552 
L 361.921677 270.3552 
z
" style="fill:#009966;"/>
   </g>
   <g id="patch_87">
    <path clip-path="url(#p3715b96b8a)" d="M 365.397636 273.312 
L 368.178403 273.312 
L 368.178403 270.3552 
L 365.397636 270.3552 
z
" style="fill:#009966;"/>
   </g>
   <g id="patch_88">
    <path clip-path="url(#p3715b96b8a)" d="M 368.873594 273.312 
L 371.654361 273.312 
L 371.654361 270.3552 
L 368.873594 270.3552 
z
" style="fill:#009966;"/>
   </g>
   <g id="patch_89">
    <path clip-path="url(#p3715b96b8a)" d="M 372.349553 273.312 
L 375.13032 273.312 
L 375.13032 270.3552 
L 372.349553 270.3552 
z
" style="fill:#009966;"/>
   </g>
   <g id="patch_90">
    <path clip-path="url(#p3715b96b8a)" d="M 375.825512 273.312 
L 378.606279 273.312 
L 378.606279 270.3552 
L 375.825512 270.3552 
z
" style="fill:#009966;"/>
   </g>
   <g id="patch_91">
    <path clip-path="url(#p3715b96b8a)" d="M 379.301471 273.312 
L 382.082238 273.312 
L 382.082238 270.3552 
L 379.301471 270.3552 
z
" style="fill:#009966;"/>
   </g>
   <g id="patch_92">
    <path clip-path="url(#p3715b96b8a)" d="M 382.777429 273.312 
L 385.558196 273.312 
L 385.558196 270.3552 
L 382.777429 270.3552 
z
" style="fill:#009966;"/>
   </g>
   <g id="patch_93">
    <path clip-path="url(#p3715b96b8a)" d="M 386.253388 273.312 
L 389.034155 273.312 
L 389.034155 270.3552 
L 386.253388 270.3552 
z
" style="fill:#009966;"/>
   </g>
   <g id="patch_94">
    <path clip-path="url(#p3715b96b8a)" d="M 389.729347 273.312 
L 392.510114 273.312 
L 392.510114 270.3552 
L 389.729347 270.3552 
z
" style="fill:#009966;"/>
   </g>
   <g id="patch_95">
    <path clip-path="url(#p3715b96b8a)" d="M 393.205306 273.312 
L 395.986072 273.312 
L 395.986072 270.3552 
L 393.205306 270.3552 
z
" style="fill:#009966;"/>
   </g>
   <g id="matplotlib.axis_1">
    <g id="xtick_1">
     <g id="line2d_1">
      <defs>
       <path d="M 0 0 
L 0 3.5 
" id="m4821b48829" style="stroke:#000000;stroke-width:0.8;"/>
      </defs>
      <g>
       <use style="stroke:#000000;stroke-width:0.8;" x="74.807486" xlink:href="#m4821b48829" y="273.312"/>
      </g>
     </g>
     <g id="text_1">
      <!-- 0 -->
      <g transform="translate(69.807486 294.296375)scale(0.2 -0.2)">
       <defs>
        <path d="M 24.609375 64.453125 
Q 19.140625 64.453125 15.421875 56.046875 
Q 11.71875 47.65625 11.71875 33.59375 
Q 11.71875 18.75 15.421875 10.546875 
Q 19.140625 2.34375 24.609375 2.34375 
Q 30.46875 2.34375 33.78125 10.546875 
Q 37.109375 18.75 37.109375 33.59375 
Q 37.109375 47.65625 33.984375 56.046875 
Q 30.859375 64.453125 24.609375 64.453125 
z
M 24.609375 -0.78125 
Q 16.015625 -0.78125 10.15625 8.203125 
Q 4.296875 17.1875 4.296875 33.59375 
Q 4.296875 48.828125 9.953125 58.203125 
Q 15.625 67.578125 24.609375 67.578125 
Q 33.203125 67.578125 38.859375 58.59375 
Q 44.53125 49.609375 44.53125 33.59375 
Q 44.53125 17.578125 38.859375 8.390625 
Q 33.203125 -0.78125 24.609375 -0.78125 
z
" id="FangSong-48"/>
       </defs>
       <use xlink:href="#FangSong-48"/>
      </g>
     </g>
    </g>
    <g id="xtick_2">
     <g id="line2d_2">
      <g>
       <use style="stroke:#000000;stroke-width:0.8;" x="161.706454" xlink:href="#m4821b48829" y="273.312"/>
      </g>
     </g>
     <g id="text_2">
      <!-- 25 -->
      <g transform="translate(151.706454 294.296375)scale(0.2 -0.2)">
       <defs>
        <path d="M 35.9375 50.390625 
Q 35.9375 57.421875 32.8125 61.125 
Q 29.6875 64.84375 23.4375 64.84375 
Q 18.75 64.84375 15.421875 62.296875 
Q 12.109375 59.765625 12.109375 55.859375 
Q 12.109375 53.515625 13.46875 51.953125 
Q 14.84375 50.390625 14.84375 48.828125 
Q 14.84375 46.875 13.859375 45.890625 
Q 12.890625 44.921875 10.9375 44.921875 
Q 8.59375 44.921875 7.21875 46.28125 
Q 5.859375 47.65625 5.859375 50.78125 
Q 5.859375 58.984375 11.71875 63.28125 
Q 17.578125 67.578125 24.21875 67.578125 
Q 33.59375 67.578125 38.078125 62.890625 
Q 42.578125 58.203125 42.578125 51.171875 
Q 42.578125 46.484375 40.421875 41.796875 
Q 38.28125 37.109375 33.59375 32.8125 
Q 22.265625 21.875 16.203125 15.03125 
Q 10.15625 8.203125 8.984375 5.859375 
L 32.03125 5.859375 
Q 35.546875 5.859375 37.890625 8.59375 
Q 40.234375 11.328125 41.015625 16.796875 
L 43.359375 16.796875 
L 41.015625 0 
L 4.6875 0 
L 4.6875 5.078125 
Q 6.640625 8.59375 11.125 14.0625 
Q 15.625 19.53125 23.046875 26.953125 
Q 29.6875 33.59375 32.8125 39.453125 
Q 35.9375 45.3125 35.9375 50.390625 
z
" id="FangSong-50"/>
        <path d="M 26.5625 42.96875 
Q 33.984375 42.96875 38.671875 37.296875 
Q 43.359375 31.640625 43.359375 22.265625 
Q 43.359375 11.71875 38.46875 5.46875 
Q 33.59375 -0.78125 23.4375 -0.78125 
Q 16.40625 -0.78125 10.9375 3.3125 
Q 5.46875 7.421875 5.46875 13.28125 
Q 5.46875 15.625 6.828125 17.375 
Q 8.203125 19.140625 10.546875 19.140625 
Q 12.890625 19.140625 13.671875 17.578125 
Q 14.453125 16.015625 14.453125 14.84375 
Q 14.453125 12.5 13.28125 11.125 
Q 12.109375 9.765625 12.109375 8.203125 
Q 12.109375 5.078125 15.8125 3.515625 
Q 19.53125 1.953125 23.828125 1.953125 
Q 30.078125 1.953125 33.390625 7.03125 
Q 36.71875 12.109375 36.71875 21.484375 
Q 36.71875 29.296875 33.78125 34.171875 
Q 30.859375 39.0625 25 39.0625 
Q 20.703125 39.0625 17.578125 37.5 
Q 14.453125 35.9375 11.71875 30.859375 
L 8.203125 31.25 
L 10.15625 66.796875 
L 42.1875 66.796875 
L 41.015625 60.9375 
L 12.890625 60.9375 
L 11.328125 35.15625 
Q 15.234375 40.625 18.9375 41.796875 
Q 22.65625 42.96875 26.5625 42.96875 
z
" id="FangSong-53"/>
       </defs>
       <use xlink:href="#FangSong-50"/>
       <use x="50" xlink:href="#FangSong-53"/>
      </g>
     </g>
    </g>
    <g id="xtick_3">
     <g id="line2d_3">
      <g>
       <use style="stroke:#000000;stroke-width:0.8;" x="248.605422" xlink:href="#m4821b48829" y="273.312"/>
      </g>
     </g>
     <g id="text_3">
      <!-- 50 -->
      <g transform="translate(238.605422 294.296375)scale(0.2 -0.2)">
       <use xlink:href="#FangSong-53"/>
       <use x="50" xlink:href="#FangSong-48"/>
      </g>
     </g>
    </g>
    <g id="xtick_4">
     <g id="line2d_4">
      <g>
       <use style="stroke:#000000;stroke-width:0.8;" x="335.504391" xlink:href="#m4821b48829" y="273.312"/>
      </g>
     </g>
     <g id="text_4">
      <!-- 75 -->
      <g transform="translate(325.504391 294.296375)scale(0.2 -0.2)">
       <defs>
        <path d="M 43.75 64.0625 
Q 35.546875 50.78125 30.65625 38.078125 
Q 25.78125 25.390625 25.78125 16.015625 
Q 25.78125 14.453125 25.96875 11.515625 
Q 26.171875 8.59375 26.171875 4.6875 
Q 26.171875 1.5625 25.1875 0.390625 
Q 24.21875 -0.78125 21.875 -0.78125 
Q 19.921875 -0.78125 18.546875 0.578125 
Q 17.1875 1.953125 17.1875 5.46875 
Q 17.1875 12.890625 20.5 23.828125 
Q 23.828125 34.765625 38.28125 60.9375 
L 18.75 60.9375 
Q 14.453125 60.9375 11.90625 58.203125 
Q 9.375 55.46875 8.203125 50 
L 5.859375 50.390625 
L 8.59375 66.796875 
L 43.75 66.796875 
z
" id="FangSong-55"/>
       </defs>
       <use xlink:href="#FangSong-55"/>
       <use x="50" xlink:href="#FangSong-53"/>
      </g>
     </g>
    </g>
    <g id="text_5">
     <!-- 产品类别 -->
     <g transform="translate(195.744375 316.812)scale(0.2 -0.2)">
      <defs>
       <path d="M 69.140625 56.25 
Q 67.1875 55.46875 65.234375 52.140625 
Q 63.28125 48.828125 59.375 41.40625 
Q 82.8125 43.359375 85.546875 44.921875 
L 89.453125 39.84375 
Q 84.765625 40.234375 28.125 35.15625 
Q 27.34375 20.3125 23.234375 10.15625 
Q 19.140625 0 8.59375 -10.15625 
L 7.421875 -8.984375 
Q 16.796875 1.171875 20.3125 12.5 
Q 23.828125 23.828125 24.21875 33.203125 
Q 24.609375 42.578125 23.046875 46.484375 
L 24.609375 47.265625 
L 28.515625 38.671875 
L 57.03125 41.015625 
Q 60.15625 48.046875 61.90625 53.703125 
Q 63.671875 59.375 62.5 61.328125 
L 34.765625 58.203125 
Q 25.78125 57.421875 23.828125 56.640625 
L 20.3125 61.328125 
Q 26.171875 60.9375 50.390625 63.46875 
Q 74.609375 66.015625 79.6875 67.578125 
L 84.765625 63.28125 
Q 78.125 62.890625 64.453125 61.71875 
z
M 44.53125 81.640625 
Q 51.171875 76.171875 55.859375 71.484375 
Q 55.078125 68.359375 53.125 65.625 
Q 49.609375 72.65625 43.359375 80.46875 
z
M 45.703125 41.015625 
Q 41.796875 48.828125 36.328125 55.859375 
L 37.5 57.03125 
Q 44.921875 50.78125 48.4375 46.875 
Q 47.265625 44.140625 45.703125 41.015625 
z
" id="FangSong-20135"/>
       <path d="M 37.5 45.3125 
Q 37.5 41.40625 36.328125 41.40625 
L 32.8125 47.265625 
Q 34.375 48.4375 34.171875 54.6875 
Q 33.984375 60.9375 33.59375 66.015625 
Q 33.203125 71.09375 32.03125 76.5625 
L 33.984375 77.34375 
L 36.328125 71.484375 
L 64.453125 74.21875 
L 67.1875 77.734375 
L 71.09375 74.21875 
L 68.75 71.09375 
L 67.1875 51.5625 
L 69.53125 48.046875 
L 37.5 45.3125 
z
M 78.90625 37.5 
L 83.59375 34.375 
L 81.25 30.859375 
L 78.90625 10.546875 
L 83.203125 7.03125 
L 58.984375 4.6875 
Q 60.15625 -3.90625 58.203125 -2.734375 
L 54.6875 2.734375 
Q 55.859375 5.46875 55.265625 19.328125 
Q 54.6875 33.203125 53.515625 37.5 
L 54.6875 37.890625 
L 57.8125 32.03125 
L 76.5625 34.375 
z
M 42.578125 35.9375 
L 46.484375 32.03125 
L 44.140625 29.296875 
L 42.578125 9.375 
L 46.09375 5.46875 
L 23.4375 3.515625 
Q 23.828125 -3.125 22.65625 -2.734375 
L 17.96875 3.515625 
Q 19.921875 3.90625 19.53125 11.125 
Q 19.140625 18.359375 18.9375 25.78125 
Q 18.75 33.203125 17.578125 36.71875 
L 18.75 37.5 
L 22.65625 30.46875 
L 39.84375 32.421875 
z
M 63.28125 51.171875 
L 64.84375 70.3125 
L 37.109375 67.96875 
L 37.5 49.21875 
z
M 75.390625 10.15625 
L 77.34375 30.46875 
L 58.203125 28.515625 
L 58.984375 8.59375 
z
M 38.671875 8.984375 
L 40.625 28.90625 
L 22.65625 26.953125 
L 23.4375 7.421875 
z
" id="FangSong-21697"/>
       <path d="M 42.96875 22.65625 
Q 46.484375 32.03125 44.53125 34.375 
L 45.703125 35.15625 
L 50.78125 29.296875 
Q 49.609375 29.6875 46.875 23.046875 
Q 80.078125 25 83.59375 26.171875 
L 88.671875 21.484375 
Q 82.03125 22.265625 57.8125 19.921875 
Q 64.0625 11.71875 68.9375 6.046875 
Q 73.828125 0.390625 76.75 -1.359375 
Q 79.6875 -3.125 92.578125 -3.515625 
L 92.578125 -5.46875 
Q 78.90625 -6.640625 73.046875 -7.03125 
Q 73.4375 -5.859375 68.75 0.78125 
Q 64.0625 7.421875 55.078125 19.921875 
L 46.09375 19.53125 
Q 34.375 -1.171875 8.203125 -9.765625 
L 7.8125 -8.203125 
Q 30.46875 1.171875 41.796875 19.140625 
Q 18.75 17.578125 15.625 16.796875 
L 11.328125 21.09375 
Q 18.359375 20.703125 42.96875 22.65625 
z
M 46.09375 39.453125 
Q 48.4375 41.40625 48.046875 47.265625 
L 48.046875 51.5625 
Q 31.640625 35.15625 14.0625 27.34375 
L 12.890625 28.515625 
Q 31.25 39.0625 42.578125 51.953125 
Q 21.875 50 19.53125 49.21875 
L 14.84375 53.515625 
Q 21.484375 53.515625 48.046875 55.46875 
L 48.4375 70.703125 
Q 48.828125 77.34375 46.484375 80.46875 
L 46.875 81.640625 
L 53.90625 77.34375 
Q 51.5625 76.171875 51.953125 70.3125 
L 51.5625 55.859375 
Q 80.46875 58.203125 82.8125 59.765625 
L 87.109375 55.078125 
Q 78.515625 55.078125 51.5625 52.34375 
L 51.5625 37.890625 
Q 51.171875 32.8125 49.609375 33.59375 
L 46.09375 39.453125 
z
M 81.640625 38.28125 
Q 81.25 35.9375 81.25 32.03125 
Q 73.4375 37.109375 55.46875 46.875 
L 56.25 48.046875 
Q 71.09375 42.1875 81.640625 38.28125 
z
M 58.59375 61.328125 
Q 64.453125 67.578125 68.15625 72.265625 
Q 71.875 76.953125 70.703125 79.6875 
L 71.875 80.078125 
L 75.390625 72.65625 
Q 74.21875 73.046875 70.3125 69.53125 
Q 66.40625 66.015625 59.765625 60.15625 
z
M 38.28125 64.453125 
Q 37.5 61.328125 36.328125 58.203125 
Q 33.59375 62.5 24.21875 72.65625 
L 25 73.828125 
Q 34.375 67.578125 38.28125 64.453125 
z
" id="FangSong-31867"/>
       <path d="M 51.5625 77.34375 
L 55.46875 73.046875 
L 52.734375 69.921875 
L 51.171875 54.6875 
L 53.90625 50.78125 
L 34.765625 48.4375 
L 39.0625 44.921875 
Q 38.671875 44.53125 37.890625 42.578125 
Q 37.5 40.625 36.328125 33.59375 
L 51.171875 35.546875 
L 53.515625 39.0625 
L 57.8125 35.15625 
L 55.078125 32.421875 
Q 52.734375 16.015625 50.578125 7.609375 
Q 48.4375 -0.78125 45.3125 -6.640625 
Q 39.84375 0.390625 33.59375 6.640625 
L 34.765625 7.8125 
L 44.53125 1.171875 
Q 49.21875 16.796875 51.171875 32.03125 
L 35.546875 29.6875 
Q 28.90625 6.25 8.984375 -9.375 
L 7.8125 -7.8125 
Q 25 6.640625 31.640625 29.296875 
Q 19.53125 27.734375 17.96875 26.953125 
L 12.5 31.25 
Q 18.359375 31.25 32.421875 33.203125 
Q 33.984375 41.015625 33.984375 48.4375 
L 28.125 47.65625 
Q 28.125 41.796875 26.953125 42.96875 
L 23.046875 47.65625 
Q 24.21875 49.21875 24.21875 53.125 
L 23.828125 66.015625 
Q 23.828125 70.703125 21.875 76.5625 
L 23.4375 77.34375 
L 27.34375 70.703125 
L 48.828125 73.4375 
z
M 85.15625 4.296875 
Q 85.546875 -5.46875 82.421875 -10.546875 
Q 77.734375 -4.296875 66.796875 4.6875 
L 67.578125 6.640625 
L 80.859375 -2.34375 
Q 82.03125 2.34375 81.640625 8.59375 
L 81.640625 69.53125 
Q 82.03125 76.171875 79.296875 80.859375 
L 80.46875 82.03125 
L 87.109375 75.78125 
Q 84.765625 73.828125 85.15625 68.75 
z
M 27.34375 66.796875 
L 27.734375 51.171875 
L 47.265625 53.515625 
L 48.828125 69.53125 
z
M 69.140625 26.953125 
Q 69.140625 19.921875 67.96875 21.484375 
L 64.0625 27.34375 
Q 65.625 28.90625 65.625 33.984375 
L 65.625 55.859375 
Q 65.625 63.28125 63.28125 66.015625 
L 64.453125 67.578125 
L 70.703125 62.109375 
Q 68.75 60.546875 69.140625 55.859375 
z
" id="FangSong-21035"/>
      </defs>
      <use xlink:href="#FangSong-20135"/>
      <use x="100" xlink:href="#FangSong-21697"/>
      <use x="200" xlink:href="#FangSong-31867"/>
      <use x="300" xlink:href="#FangSong-21035"/>
     </g>
    </g>
   </g>
   <g id="matplotlib.axis_2">
    <g id="ytick_1">
     <g id="line2d_5">
      <defs>
       <path d="M 0 0 
L -3.5 0 
" id="m8e700e4969" style="stroke:#000000;stroke-width:0.8;"/>
      </defs>
      <g>
       <use style="stroke:#000000;stroke-width:0.8;" x="57.184375" xlink:href="#m8e700e4969" y="273.312"/>
      </g>
     </g>
     <g id="text_6">
      <!-- 0 -->
      <g transform="translate(40.184375 280.304187)scale(0.2 -0.2)">
       <use xlink:href="#FangSong-48"/>
      </g>
     </g>
    </g>
    <g id="ytick_2">
     <g id="line2d_6">
      <g>
       <use style="stroke:#000000;stroke-width:0.8;" x="57.184375" xlink:href="#m8e700e4969" y="214.176"/>
      </g>
     </g>
     <g id="text_7">
      <!-- 20 -->
      <g transform="translate(30.184375 221.168187)scale(0.2 -0.2)">
       <use xlink:href="#FangSong-50"/>
       <use x="50" xlink:href="#FangSong-48"/>
      </g>
     </g>
    </g>
    <g id="ytick_3">
     <g id="line2d_7">
      <g>
       <use style="stroke:#000000;stroke-width:0.8;" x="57.184375" xlink:href="#m8e700e4969" y="155.04"/>
      </g>
     </g>
     <g id="text_8">
      <!-- 40 -->
      <g transform="translate(30.184375 162.032187)scale(0.2 -0.2)">
       <defs>
        <path d="M 35.546875 7.421875 
Q 35.546875 4.6875 37.109375 3.515625 
Q 38.671875 2.34375 41.40625 2.34375 
L 44.921875 2.34375 
L 44.921875 0 
L 19.140625 0 
L 19.140625 2.34375 
L 23.4375 2.34375 
Q 26.5625 2.34375 27.921875 3.515625 
Q 29.296875 4.6875 29.296875 7.421875 
L 29.296875 20.3125 
L 3.125 20.3125 
L 3.125 22.265625 
L 31.640625 67.578125 
L 35.546875 67.578125 
L 35.546875 22.65625 
L 46.09375 22.65625 
L 46.09375 20.3125 
L 35.546875 20.3125 
z
M 28.90625 57.8125 
L 6.640625 22.65625 
L 29.296875 22.65625 
L 29.296875 57.8125 
z
" id="FangSong-52"/>
       </defs>
       <use xlink:href="#FangSong-52"/>
       <use x="50" xlink:href="#FangSong-48"/>
      </g>
     </g>
    </g>
    <g id="ytick_4">
     <g id="line2d_8">
      <g>
       <use style="stroke:#000000;stroke-width:0.8;" x="57.184375" xlink:href="#m8e700e4969" y="95.904"/>
      </g>
     </g>
     <g id="text_9">
      <!-- 60 -->
      <g transform="translate(30.184375 102.896187)scale(0.2 -0.2)">
       <defs>
        <path d="M 11.71875 26.5625 
Q 11.71875 14.84375 15.8125 8.390625 
Q 19.921875 1.953125 25.78125 1.953125 
Q 31.640625 1.953125 34.765625 6.25 
Q 37.890625 10.546875 37.890625 22.265625 
Q 37.890625 30.078125 34.5625 34.375 
Q 31.25 38.671875 26.5625 38.671875 
Q 22.265625 38.671875 18.546875 36.125 
Q 14.84375 33.59375 11.71875 26.5625 
z
M 26.953125 42.578125 
Q 36.328125 42.578125 40.421875 36.328125 
Q 44.53125 30.078125 44.53125 22.265625 
Q 44.53125 10.546875 38.859375 4.875 
Q 33.203125 -0.78125 25.78125 -0.78125 
Q 15.234375 -0.78125 9.765625 7.21875 
Q 4.296875 15.234375 4.296875 30.46875 
Q 4.296875 48.4375 10.9375 58 
Q 17.578125 67.578125 28.90625 67.578125 
Q 34.375 67.578125 37.6875 64.453125 
Q 41.015625 61.328125 41.015625 58.984375 
Q 41.015625 56.640625 40.03125 55.46875 
Q 39.0625 54.296875 36.71875 54.296875 
Q 34.765625 54.296875 33.78125 55.265625 
Q 32.8125 56.25 32.8125 58.203125 
Q 32.8125 58.984375 33 59.765625 
Q 33.203125 60.546875 33.203125 61.328125 
Q 33.203125 62.890625 32.03125 63.859375 
Q 30.859375 64.84375 27.734375 64.84375 
Q 21.09375 64.84375 16.40625 58.78125 
Q 11.71875 52.734375 11.71875 32.421875 
Q 14.0625 37.5 18.15625 40.03125 
Q 22.265625 42.578125 26.953125 42.578125 
z
" id="FangSong-54"/>
       </defs>
       <use xlink:href="#FangSong-54"/>
       <use x="50" xlink:href="#FangSong-48"/>
      </g>
     </g>
    </g>
    <g id="ytick_5">
     <g id="line2d_9">
      <g>
       <use style="stroke:#000000;stroke-width:0.8;" x="57.184375" xlink:href="#m8e700e4969" y="36.768"/>
      </g>
     </g>
     <g id="text_10">
      <!-- 80 -->
      <g transform="translate(30.184375 43.760187)scale(0.2 -0.2)">
       <defs>
        <path d="M 9.375 16.015625 
Q 9.375 9.765625 13.46875 5.859375 
Q 17.578125 1.953125 23.828125 1.953125 
Q 31.25 1.953125 34.5625 5.859375 
Q 37.890625 9.765625 37.890625 15.625 
Q 37.890625 20.703125 33.203125 25.390625 
Q 28.515625 30.078125 19.140625 33.984375 
Q 14.453125 30.859375 11.90625 26.171875 
Q 9.375 21.484375 9.375 16.015625 
z
M 43.75 16.796875 
Q 43.75 9.375 38.28125 4.296875 
Q 32.8125 -0.78125 23.828125 -0.78125 
Q 15.625 -0.78125 9.765625 4.296875 
Q 3.90625 9.375 3.90625 16.015625 
Q 3.90625 22.65625 7.21875 27.34375 
Q 10.546875 32.03125 16.796875 35.546875 
Q 11.328125 38.28125 8.390625 42.375 
Q 5.46875 46.484375 5.46875 51.5625 
Q 5.46875 58.203125 10.546875 62.890625 
Q 15.625 67.578125 24.609375 67.578125 
Q 32.8125 67.578125 37.890625 62.890625 
Q 42.96875 58.203125 42.96875 51.5625 
Q 42.96875 46.875 40.03125 42.765625 
Q 37.109375 38.671875 30.859375 35.546875 
Q 37.5 31.640625 40.625 26.953125 
Q 43.75 22.265625 43.75 16.796875 
z
M 37.5 51.171875 
Q 37.5 56.640625 34.375 60.734375 
Q 31.25 64.84375 24.609375 64.84375 
Q 17.1875 64.84375 14.0625 60.9375 
Q 10.9375 57.03125 10.9375 52.734375 
Q 10.9375 48.4375 15.421875 44.328125 
Q 19.921875 40.234375 28.125 37.109375 
Q 32.8125 39.453125 35.15625 42.96875 
Q 37.5 46.484375 37.5 51.171875 
z
" id="FangSong-56"/>
       </defs>
       <use xlink:href="#FangSong-56"/>
       <use x="50" xlink:href="#FangSong-48"/>
      </g>
     </g>
    </g>
    <g id="text_11">
     <!-- 出货箱数 -->
     <g transform="translate(23.29375 180.256)rotate(-90)scale(0.2 -0.2)">
      <defs>
       <path d="M 79.296875 28.90625 
L 85.546875 23.4375 
Q 83.984375 24.21875 83.203125 18.15625 
Q 82.421875 12.109375 81.4375 5.65625 
Q 80.46875 -0.78125 79.6875 -4.09375 
Q 78.90625 -7.421875 77.734375 -7.8125 
Q 76.5625 -8.203125 76.5625 -0.78125 
L 23.4375 -4.296875 
L 20.703125 -7.03125 
L 16.796875 -1.953125 
L 19.921875 -0.78125 
L 19.53125 16.40625 
Q 19.140625 21.875 16.796875 24.21875 
L 17.578125 25.390625 
L 24.609375 20.3125 
Q 22.65625 18.75 23.046875 12.890625 
L 23.4375 -0.78125 
L 48.4375 0.78125 
L 48.828125 34.765625 
L 28.125 32.8125 
L 25.390625 30.46875 
L 21.484375 35.15625 
L 24.21875 36.71875 
L 23.828125 53.515625 
Q 24.21875 59.765625 21.09375 63.28125 
L 21.875 64.453125 
L 28.90625 59.375 
Q 27.34375 58.59375 27.34375 53.515625 
L 27.734375 36.328125 
L 48.828125 38.28125 
L 49.21875 67.1875 
Q 49.609375 76.953125 46.484375 79.6875 
L 47.65625 80.859375 
L 55.078125 74.21875 
Q 52.34375 72.65625 52.734375 66.796875 
L 52.34375 38.671875 
L 74.609375 40.625 
Q 76.171875 51.171875 77.140625 57.8125 
Q 78.125 64.453125 76.171875 66.015625 
L 77.34375 66.796875 
L 82.421875 61.71875 
Q 81.25 60.9375 80.46875 55.46875 
Q 79.6875 50 78.703125 43.359375 
Q 77.734375 36.71875 76.953125 33.984375 
Q 76.171875 31.25 75.390625 31.4375 
Q 74.609375 31.640625 74.21875 37.109375 
L 52.34375 35.15625 
L 51.953125 1.171875 
L 76.953125 2.734375 
Q 78.90625 13.671875 79.6875 19.921875 
Q 80.46875 26.171875 78.515625 28.125 
z
" id="FangSong-20986"/>
       <path d="M 55.859375 50.390625 
Q 55.859375 46.09375 62.5 46.484375 
L 77.734375 46.875 
Q 84.375 47.265625 85.15625 49.609375 
Q 85.9375 51.953125 85.9375 61.328125 
L 87.5 61.328125 
Q 87.890625 56.25 88.28125 52.34375 
Q 88.671875 48.4375 91.40625 46.484375 
Q 86.328125 43.75 77.734375 43.359375 
L 62.5 42.96875 
Q 52.34375 42.578125 52.34375 50 
L 52.34375 53.90625 
Q 47.265625 51.171875 36.328125 47.65625 
L 35.546875 49.609375 
Q 44.53125 52.734375 52.34375 57.03125 
L 52.34375 68.75 
Q 52.734375 78.125 50.390625 80.859375 
L 51.5625 81.640625 
L 57.8125 76.5625 
Q 55.46875 74.609375 55.859375 69.140625 
L 55.859375 59.375 
Q 66.796875 66.015625 71.484375 70.109375 
Q 76.171875 74.21875 75 76.5625 
L 76.5625 76.953125 
L 78.90625 68.75 
Q 78.515625 69.921875 71.09375 65.03125 
Q 63.671875 60.15625 55.859375 55.859375 
z
M 66.015625 37.890625 
L 68.359375 41.40625 
L 73.4375 37.890625 
L 70.703125 34.765625 
Q 69.921875 17.1875 69.71875 12.6875 
Q 69.53125 8.203125 68.546875 9.375 
Q 67.578125 10.546875 64.453125 14.453125 
Q 65.625 16.40625 65.8125 17.96875 
Q 66.015625 19.53125 66.796875 34.375 
L 33.984375 31.640625 
L 33.984375 10.9375 
Q 33.984375 5.46875 32.421875 7.03125 
L 28.515625 12.5 
Q 30.078125 15.625 30.46875 18.359375 
L 30.46875 28.515625 
Q 30.078125 34.765625 27.734375 39.0625 
L 29.296875 39.84375 
L 33.984375 35.15625 
z
M 30.859375 64.84375 
Q 25.390625 57.8125 9.375 45.703125 
L 8.59375 47.265625 
Q 22.265625 58.984375 30.46875 69.921875 
Q 38.671875 80.859375 36.71875 82.8125 
L 37.890625 83.203125 
L 41.796875 76.171875 
Q 40.625 76.5625 38.28125 74.015625 
Q 35.9375 71.484375 34.375 69.53125 
L 33.984375 41.796875 
Q 33.984375 37.890625 32.421875 39.453125 
L 28.90625 45.703125 
Q 30.859375 46.484375 30.46875 50 
z
M 47.265625 30.46875 
L 52.734375 24.609375 
Q 51.171875 23.4375 49.21875 15.234375 
Q 47.265625 7.03125 39.0625 0.578125 
Q 30.859375 -5.859375 15.625 -10.15625 
L 14.453125 -8.59375 
Q 28.515625 -4.296875 36.125 2.140625 
Q 43.75 8.59375 45.703125 17.1875 
Q 47.65625 25.78125 45.703125 29.6875 
z
M 78.515625 -7.8125 
Q 71.875 -1.953125 51.953125 10.546875 
L 52.734375 12.109375 
Q 70.3125 3.90625 77.34375 1.171875 
Q 78.90625 -3.125 78.515625 -7.8125 
z
" id="FangSong-36135"/>
       <path d="M 54.6875 -0.390625 
Q 54.6875 -10.15625 52.734375 -6.640625 
L 49.609375 -1.953125 
Q 51.171875 -0.390625 51.171875 3.125 
L 51.171875 32.03125 
Q 51.5625 41.40625 49.609375 45.703125 
L 50.78125 46.484375 
L 54.296875 40.625 
L 76.5625 42.96875 
L 79.6875 47.65625 
L 83.984375 43.359375 
L 80.859375 39.0625 
Q 80.859375 32.421875 80.65625 18.9375 
Q 80.46875 5.46875 79.6875 -1.359375 
Q 78.90625 -8.203125 77.34375 -6.046875 
Q 75.78125 -3.90625 75.390625 0.78125 
z
M 54.6875 28.515625 
Q 66.796875 29.6875 68.75 30.859375 
L 73.046875 26.953125 
Q 67.578125 26.953125 54.6875 25 
L 54.6875 17.1875 
Q 67.578125 18.359375 69.53125 19.140625 
L 73.046875 15.234375 
Q 68.359375 15.625 54.6875 13.671875 
L 54.6875 2.734375 
Q 71.875 3.515625 72.265625 4.6875 
L 76.171875 1.171875 
Q 76.953125 19.921875 77.34375 39.453125 
L 54.6875 37.5 
z
M 45.3125 15.625 
Q 39.84375 20.703125 35.15625 24.21875 
L 34.765625 -5.078125 
Q 34.765625 -11.71875 33.984375 -9.765625 
L 28.90625 -4.296875 
Q 30.859375 -1.953125 31.25 3.515625 
L 31.640625 25.78125 
Q 22.65625 13.28125 9.765625 2.734375 
L 8.59375 3.90625 
Q 21.875 17.1875 30.078125 31.25 
Q 20.3125 29.6875 17.578125 28.515625 
L 12.5 32.8125 
Q 18.75 32.8125 31.640625 34.765625 
L 32.03125 42.1875 
Q 32.421875 47.65625 30.078125 51.5625 
L 30.859375 52.34375 
L 37.5 46.875 
Q 35.15625 45.3125 35.546875 39.84375 
L 35.15625 35.15625 
Q 42.1875 36.328125 44.53125 37.5 
L 48.4375 33.59375 
Q 43.75 33.203125 35.15625 31.640625 
L 35.15625 26.5625 
Q 39.84375 24.21875 45.3125 22.265625 
z
M 45.703125 52.34375 
Q 44.53125 49.609375 42.96875 46.484375 
Q 39.84375 53.125 36.71875 60.546875 
L 29.6875 60.15625 
Q 22.265625 49.609375 15.234375 43.359375 
L 14.0625 44.140625 
Q 25.390625 58.203125 31.046875 68.75 
Q 36.71875 79.296875 34.765625 81.25 
L 35.9375 81.640625 
L 41.015625 74.609375 
Q 39.453125 75 37.296875 72.0625 
Q 35.15625 69.140625 31.640625 63.28125 
Q 49.21875 64.453125 53.125 64.84375 
L 57.03125 61.328125 
Q 52.734375 61.328125 38.28125 60.546875 
Q 42.578125 56.25 45.703125 52.34375 
z
M 60.9375 60.546875 
Q 56.25 53.125 51.171875 48.046875 
L 50 48.828125 
Q 59.765625 63.28125 63.28125 71.875 
Q 66.796875 80.078125 65.234375 81.25 
L 66.40625 82.03125 
L 71.484375 75 
Q 69.921875 75.390625 68.359375 73.046875 
Q 66.796875 70.703125 62.890625 64.0625 
Q 82.03125 66.015625 87.890625 67.1875 
L 91.796875 63.28125 
Q 86.328125 63.28125 70.3125 61.328125 
Q 74.609375 57.421875 78.515625 53.515625 
Q 77.734375 51.171875 75.78125 48.046875 
Q 72.265625 55.46875 68.359375 61.328125 
z
" id="FangSong-31665"/>
       <path d="M 77.34375 42.96875 
Q 76.171875 41.796875 74.015625 35.34375 
Q 71.875 28.90625 68.359375 20.3125 
Q 76.171875 4.6875 79.484375 0.578125 
Q 82.8125 -3.515625 93.75 -3.515625 
L 93.75 -5.46875 
L 76.953125 -6.640625 
Q 77.34375 -5.078125 74.796875 0.578125 
Q 72.265625 6.25 66.40625 17.1875 
Q 56.25 0.78125 40.234375 -10.546875 
L 39.0625 -8.984375 
Q 53.125 1.5625 64.0625 20.3125 
Q 57.8125 33.59375 55.46875 36.71875 
Q 53.125 32.03125 50.78125 28.515625 
L 49.21875 29.296875 
Q 53.125 37.890625 55.859375 45.890625 
Q 58.59375 53.90625 61.71875 66.015625 
Q 64.84375 78.125 62.890625 79.6875 
L 64.0625 80.46875 
L 69.140625 75 
Q 67.96875 74.21875 66.984375 70.3125 
Q 66.015625 66.40625 60.9375 50 
Q 83.203125 52.734375 85.546875 54.296875 
L 90.234375 50 
Q 84.765625 49.609375 73.4375 48.046875 
z
M 46.484375 7.03125 
Q 46.875 3.515625 46.875 0.390625 
Q 42.1875 3.125 35.546875 6.25 
Q 25.78125 -3.90625 8.59375 -9.765625 
L 7.8125 -8.203125 
Q 23.046875 -1.171875 31.640625 7.421875 
Q 26.171875 8.984375 19.921875 10.9375 
L 25 21.484375 
Q 15.625 20.3125 12.890625 19.53125 
L 8.203125 23.828125 
Q 12.890625 23.828125 26.5625 25.390625 
Q 28.125 29.296875 28.515625 31.828125 
Q 28.90625 34.375 28.515625 36.71875 
L 29.296875 37.109375 
L 33.59375 31.25 
Q 32.421875 30.859375 30.46875 25.78125 
L 42.578125 26.953125 
Q 43.359375 28.90625 42.96875 32.421875 
L 44.140625 32.8125 
L 48.828125 26.5625 
Q 47.65625 26.5625 45.3125 21.671875 
Q 42.96875 16.796875 38.28125 8.984375 
Q 41.40625 8.203125 46.484375 7.03125 
z
M 36.71875 56.25 
L 41.40625 56.640625 
Q 45.3125 64.84375 46.671875 69.328125 
Q 48.046875 73.828125 47.65625 77.34375 
L 48.828125 78.125 
L 53.125 71.484375 
Q 51.953125 71.09375 50.1875 67.765625 
Q 48.4375 64.453125 43.75 56.640625 
Q 51.171875 58.203125 51.5625 58.59375 
L 55.078125 54.296875 
Q 50.78125 54.296875 36.71875 52.734375 
L 36.71875 50.390625 
Q 43.75 47.265625 50.390625 44.53125 
Q 50.390625 41.40625 50 37.5 
Q 44.53125 42.96875 36.71875 48.046875 
L 36.71875 37.109375 
Q 36.71875 32.03125 35.15625 34.375 
L 31.640625 39.0625 
Q 33.59375 41.015625 33.203125 44.53125 
L 33.203125 50 
Q 21.09375 35.9375 7.421875 27.734375 
L 6.25 29.296875 
Q 18.75 37.890625 29.6875 51.953125 
Q 16.40625 50.390625 15.625 49.609375 
L 10.546875 54.296875 
Q 16.40625 53.90625 33.203125 55.859375 
L 33.203125 69.921875 
Q 33.203125 77.734375 31.25 80.859375 
L 32.421875 81.640625 
L 38.28125 76.953125 
Q 36.71875 75.78125 36.71875 68.75 
z
M 59.375 38.28125 
Q 59.765625 35.9375 61.71875 31.640625 
L 65.625 24.21875 
Q 67.578125 28.125 70.109375 37.109375 
Q 72.65625 46.09375 71.875 47.65625 
L 59.375 46.09375 
Q 57.8125 42.1875 56.25 38.671875 
z
M 33.984375 10.15625 
Q 39.0625 16.796875 41.796875 23.828125 
L 29.296875 21.875 
L 24.609375 12.5 
z
M 25.390625 57.03125 
Q 23.046875 62.5 17.1875 70.703125 
L 18.359375 71.875 
Q 23.046875 67.96875 28.515625 62.890625 
Q 26.953125 59.765625 25.390625 57.03125 
z
" id="FangSong-25968"/>
      </defs>
      <use xlink:href="#FangSong-20986"/>
      <use x="100" xlink:href="#FangSong-36135"/>
      <use x="200" xlink:href="#FangSong-31665"/>
      <use x="300" xlink:href="#FangSong-25968"/>
     </g>
    </g>
   </g>
   <g id="patch_96">
    <path d="M 57.184375 273.312 
L 57.184375 7.2 
" style="fill:none;stroke:#000000;stroke-linecap:square;stroke-linejoin:miter;stroke-width:0.8;"/>
   </g>
   <g id="patch_97">
    <path d="M 414.304375 273.312 
L 414.304375 7.2 
" style="fill:none;stroke:#000000;stroke-linecap:square;stroke-linejoin:miter;stroke-width:0.8;"/>
   </g>
   <g id="patch_98">
    <path d="M 57.184375 273.312 
L 414.304375 273.312 
" style="fill:none;stroke:#000000;stroke-linecap:square;stroke-linejoin:miter;stroke-width:0.8;"/>
   </g>
   <g id="patch_99">
    <path d="M 57.184375 7.2 
L 414.304375 7.2 
" style="fill:none;stroke:#000000;stroke-linecap:square;stroke-linejoin:miter;stroke-width:0.8;"/>
   </g>
  </g>
  <g id="axes_2">
   <g id="matplotlib.axis_3">
    <g id="ytick_6">
     <g id="line2d_10">
      <defs>
       <path d="M 0 0 
L 3.5 0 
" id="meaeea8627c" style="stroke:#000000;stroke-width:0.8;"/>
      </defs>
      <g>
       <use style="stroke:#000000;stroke-width:0.8;" x="414.304375" xlink:href="#meaeea8627c" y="273.312"/>
      </g>
     </g>
     <g id="text_12">
      <!-- 0 -->
      <g transform="translate(421.304375 280.304187)scale(0.2 -0.2)">
       <use xlink:href="#FangSong-48"/>
      </g>
     </g>
    </g>
    <g id="ytick_7">
     <g id="line2d_11">
      <g>
       <use style="stroke:#000000;stroke-width:0.8;" x="414.304375" xlink:href="#meaeea8627c" y="216.692426"/>
      </g>
     </g>
     <g id="text_13">
      <!-- 200 -->
      <g transform="translate(421.304375 223.684613)scale(0.2 -0.2)">
       <use xlink:href="#FangSong-50"/>
       <use x="50" xlink:href="#FangSong-48"/>
       <use x="100" xlink:href="#FangSong-48"/>
      </g>
     </g>
    </g>
    <g id="ytick_8">
     <g id="line2d_12">
      <g>
       <use style="stroke:#000000;stroke-width:0.8;" x="414.304375" xlink:href="#meaeea8627c" y="160.072851"/>
      </g>
     </g>
     <g id="text_14">
      <!-- 400 -->
      <g transform="translate(421.304375 167.065039)scale(0.2 -0.2)">
       <use xlink:href="#FangSong-52"/>
       <use x="50" xlink:href="#FangSong-48"/>
       <use x="100" xlink:href="#FangSong-48"/>
      </g>
     </g>
    </g>
    <g id="ytick_9">
     <g id="line2d_13">
      <g>
       <use style="stroke:#000000;stroke-width:0.8;" x="414.304375" xlink:href="#meaeea8627c" y="103.453277"/>
      </g>
     </g>
     <g id="text_15">
      <!-- 600 -->
      <g transform="translate(421.304375 110.445464)scale(0.2 -0.2)">
       <use xlink:href="#FangSong-54"/>
       <use x="50" xlink:href="#FangSong-48"/>
       <use x="100" xlink:href="#FangSong-48"/>
      </g>
     </g>
    </g>
    <g id="ytick_10">
     <g id="line2d_14">
      <g>
       <use style="stroke:#000000;stroke-width:0.8;" x="414.304375" xlink:href="#meaeea8627c" y="46.833702"/>
      </g>
     </g>
     <g id="text_16">
      <!-- 800 -->
      <g transform="translate(421.304375 53.82589)scale(0.2 -0.2)">
       <use xlink:href="#FangSong-56"/>
       <use x="50" xlink:href="#FangSong-48"/>
       <use x="100" xlink:href="#FangSong-48"/>
      </g>
     </g>
    </g>
    <g id="text_17">
     <!-- 累计出货箱数 -->
     <g transform="translate(471.398125 200.256)rotate(-90)scale(0.2 -0.2)">
      <defs>
       <path d="M 70.703125 77.734375 
L 73.4375 81.640625 
L 78.125 77.34375 
L 75.390625 74.609375 
L 72.265625 55.46875 
L 75.78125 51.5625 
L 49.609375 49.21875 
L 52.734375 46.484375 
Q 50 45.703125 44.71875 42.578125 
Q 39.453125 39.453125 32.421875 35.546875 
L 54.296875 39.0625 
Q 58.59375 41.796875 60.9375 43.75 
Q 63.28125 45.703125 64.0625 48.046875 
L 65.234375 48.4375 
L 67.578125 42.1875 
Q 65.625 41.796875 54.6875 34.953125 
Q 43.75 28.125 35.546875 24.21875 
L 68.359375 28.515625 
L 60.9375 33.984375 
L 62.5 35.546875 
Q 72.265625 29.6875 77.34375 26.953125 
Q 77.734375 23.046875 76.953125 19.140625 
Q 75 21.484375 70.3125 26.171875 
L 50.78125 23.046875 
L 55.078125 20.3125 
Q 52.734375 18.75 52.734375 13.671875 
L 52.734375 0.390625 
Q 52.734375 -5.078125 50.390625 -9.765625 
Q 46.484375 -5.078125 37.5 2.34375 
L 38.28125 3.90625 
L 47.65625 -1.171875 
Q 49.21875 -1.953125 49.21875 0 
L 49.21875 14.453125 
Q 49.21875 20.3125 48.828125 22.65625 
Q 29.296875 19.921875 24.609375 18.359375 
L 20.703125 22.265625 
L 28.90625 24.21875 
Q 33.984375 26.5625 50.78125 35.9375 
Q 32.421875 32.8125 29.296875 31.25 
L 24.609375 35.15625 
L 28.125 35.9375 
Q 33.59375 38.671875 47.265625 48.828125 
L 31.25 47.265625 
Q 31.25 41.796875 30.46875 42.1875 
Q 29.6875 42.578125 25.78125 47.265625 
Q 26.953125 50.78125 26.953125 53.515625 
L 25.78125 68.75 
Q 25.390625 73.046875 23.828125 77.34375 
L 25.390625 78.125 
L 29.296875 73.046875 
z
M 49.21875 52.734375 
L 49.21875 60.546875 
Q 39.453125 59.375 37.5 58.203125 
L 32.8125 62.109375 
Q 39.0625 62.109375 49.21875 63.671875 
L 49.21875 71.875 
L 29.6875 69.53125 
L 30.859375 50.78125 
z
M 52.734375 64.0625 
Q 61.71875 65.234375 62.890625 66.015625 
L 66.796875 62.5 
Q 61.71875 62.109375 52.734375 60.9375 
L 52.734375 53.125 
L 68.75 54.6875 
L 71.484375 74.21875 
L 52.734375 71.875 
L 52.734375 64.0625 
z
M 85.15625 -1.171875 
Q 77.734375 5.078125 60.546875 16.015625 
L 61.71875 17.578125 
Q 75.78125 10.9375 83.59375 7.8125 
Q 84.765625 3.90625 85.15625 -1.171875 
z
M 12.5 -3.90625 
Q 21.09375 1.171875 28.515625 7.8125 
Q 35.9375 14.453125 36.328125 17.578125 
L 37.5 17.96875 
L 39.84375 11.328125 
Q 37.890625 10.9375 32.421875 6.640625 
Q 26.953125 2.34375 13.671875 -5.46875 
z
" id="FangSong-32047"/>
       <path d="M 63.671875 65.625 
Q 64.0625 75.390625 60.9375 79.6875 
L 62.109375 80.46875 
L 69.53125 73.828125 
Q 66.796875 71.875 67.1875 65.625 
L 66.796875 46.875 
Q 86.328125 50 87.109375 50.78125 
L 92.96875 46.09375 
Q 89.453125 46.484375 66.796875 43.75 
L 66.40625 -6.640625 
Q 66.40625 -10.9375 64.84375 -8.984375 
L 60.546875 -2.34375 
Q 63.28125 0.78125 62.890625 4.6875 
L 63.28125 42.96875 
Q 46.484375 41.015625 45.3125 40.234375 
L 39.453125 44.140625 
Q 44.53125 44.140625 63.28125 46.484375 
z
M 27.734375 50.78125 
L 32.8125 46.09375 
L 29.6875 42.96875 
L 29.296875 8.59375 
L 44.140625 19.53125 
L 44.921875 18.359375 
Q 29.296875 3.90625 27.34375 -0.390625 
L 23.828125 4.296875 
Q 25.390625 5.859375 25.78125 9.765625 
L 26.171875 43.359375 
Q 14.0625 41.015625 11.71875 39.84375 
L 6.640625 43.75 
Q 13.28125 44.140625 25.78125 46.875 
z
M 31.640625 59.375 
Q 28.515625 67.1875 20.703125 77.34375 
L 21.484375 78.515625 
Q 30.078125 71.484375 33.984375 67.1875 
Q 33.203125 62.5 31.640625 59.375 
z
" id="FangSong-35745"/>
      </defs>
      <use xlink:href="#FangSong-32047"/>
      <use x="100" xlink:href="#FangSong-35745"/>
      <use x="200" xlink:href="#FangSong-20986"/>
      <use x="300" xlink:href="#FangSong-36135"/>
      <use x="400" xlink:href="#FangSong-31665"/>
      <use x="500" xlink:href="#FangSong-25968"/>
     </g>
    </g>
   </g>
   <g id="line2d_15">
    <path clip-path="url(#p3715b96b8a)" d="M 74.807486 273.312 
L 78.283444 250.66417 
L 81.759403 229.998026 
L 85.235362 215.843132 
L 88.711321 201.688238 
L 92.187279 189.798128 
L 95.663238 180.738996 
L 99.139197 171.679864 
L 102.615156 162.620732 
L 106.091114 155.826383 
L 109.567073 150.164426 
L 113.043032 144.502468 
L 116.518991 138.840511 
L 119.994949 133.178553 
L 123.470908 127.516596 
L 126.946867 123.270128 
L 130.422825 119.02366 
L 133.898784 115.060289 
L 137.374743 111.663115 
L 140.850702 108.26594 
L 144.32666 104.868766 
L 147.802619 101.754689 
L 151.278578 98.923711 
L 154.754537 96.092732 
L 158.230495 93.261753 
L 161.706454 90.430774 
L 165.182413 87.599796 
L 168.658371 85.051915 
L 172.13433 82.504034 
L 175.610289 80.239251 
L 179.086248 77.974468 
L 182.562206 75.709685 
L 186.038165 73.728 
L 189.514124 72.029413 
L 192.990083 70.330826 
L 196.466041 68.632238 
L 199.942 66.933651 
L 203.417959 65.518162 
L 206.893918 64.102672 
L 210.369876 62.970281 
L 213.845835 61.837889 
L 217.321794 60.705498 
L 220.797752 59.573106 
L 224.273711 58.440715 
L 227.74967 57.308323 
L 231.225629 56.175932 
L 234.701587 55.326638 
L 238.177546 54.477345 
L 241.653505 53.628051 
L 245.129464 52.778757 
L 248.605422 51.929464 
L 252.081381 51.08017 
L 255.55734 50.230877 
L 259.033298 49.381583 
L 262.509257 48.532289 
L 265.985216 47.682996 
L 269.461175 46.833702 
L 272.937133 46.267506 
L 276.413092 45.701311 
L 279.889051 45.135115 
L 283.36501 44.568919 
L 286.840968 44.002723 
L 290.316927 43.436528 
L 293.792886 42.870332 
L 297.268845 42.304136 
L 300.744803 41.73794 
L 304.220762 41.171745 
L 307.696721 40.605549 
L 311.172679 40.322451 
L 314.648638 40.039353 
L 318.124597 39.756255 
L 321.600556 39.473157 
L 325.076514 39.19006 
L 328.552473 38.906962 
L 332.028432 38.623864 
L 335.504391 38.340766 
L 338.980349 38.057668 
L 342.456308 37.77457 
L 345.932267 37.491472 
L 349.408225 37.208374 
L 352.884184 36.925277 
L 356.360143 36.642179 
L 359.836102 36.359081 
L 363.31206 36.075983 
L 366.788019 35.792885 
L 370.263978 35.509787 
L 373.739937 35.226689 
L 377.215895 34.943591 
L 380.691854 34.660494 
L 384.167813 34.377396 
L 387.643772 34.094298 
L 391.11973 33.8112 
L 394.595689 33.528102 
L 398.071648 33.245004 
" style="fill:none;stroke:#ff0033;stroke-linecap:square;stroke-width:1.5;"/>
   </g>
   <g id="patch_100">
    <path d="M 57.184375 273.312 
L 57.184375 7.2 
" style="fill:none;stroke:#000000;stroke-linecap:square;stroke-linejoin:miter;stroke-width:0.8;"/>
   </g>
   <g id="patch_101">
    <path d="M 414.304375 273.312 
L 414.304375 7.2 
" style="fill:none;stroke:#000000;stroke-linecap:square;stroke-linejoin:miter;stroke-width:0.8;"/>
   </g>
   <g id="patch_102">
    <path d="M 57.184375 273.312 
L 414.304375 273.312 
" style="fill:none;stroke:#000000;stroke-linecap:square;stroke-linejoin:miter;stroke-width:0.8;"/>
   </g>
   <g id="patch_103">
    <path d="M 57.184375 7.2 
L 414.304375 7.2 
" style="fill:none;stroke:#000000;stroke-linecap:square;stroke-linejoin:miter;stroke-width:0.8;"/>
   </g>
  </g>
  <g id="legend_1">
   <g id="patch_104">
    <path d="M 593.424375 81.0125 
L 757.424375 81.0125 
Q 761.424375 81.0125 761.424375 77.0125 
L 761.424375 21.2 
Q 761.424375 17.2 757.424375 17.2 
L 593.424375 17.2 
Q 589.424375 17.2 589.424375 21.2 
L 589.424375 77.0125 
Q 589.424375 81.0125 593.424375 81.0125 
z
" style="fill:#ffffff;opacity:0.8;stroke:#cccccc;stroke-linejoin:miter;"/>
   </g>
   <g id="patch_105">
    <path d="M 597.424375 41.29375 
L 637.424375 41.29375 
L 637.424375 27.29375 
L 597.424375 27.29375 
z
" style="fill:#009966;"/>
   </g>
   <g id="text_18">
    <!-- 单品出货量 -->
    <g transform="translate(653.424375 41.29375)scale(0.2 -0.2)">
     <defs>
      <path d="M 48.4375 17.1875 
Q 15.625 14.453125 12.890625 14.0625 
L 8.59375 17.96875 
Q 14.453125 17.578125 48.4375 20.3125 
L 48.828125 31.25 
L 31.640625 29.6875 
Q 32.03125 25.78125 30.46875 25.78125 
L 26.5625 31.25 
Q 28.125 32.421875 27.734375 47.0625 
Q 27.34375 61.71875 26.171875 63.28125 
L 27.734375 64.0625 
L 30.46875 58.203125 
L 55.859375 60.9375 
Q 59.375 67.1875 61.90625 73.4375 
Q 64.453125 79.6875 62.5 81.25 
L 63.671875 82.03125 
L 68.359375 75 
Q 67.578125 75.78125 65.234375 71.875 
Q 62.5 67.96875 58.203125 60.9375 
L 72.265625 62.890625 
L 75 66.40625 
L 79.6875 62.109375 
L 76.953125 59.375 
L 73.828125 37.5 
L 77.734375 33.984375 
L 52.34375 31.640625 
L 51.953125 20.703125 
Q 86.71875 23.4375 87.890625 24.609375 
L 92.96875 19.921875 
Q 84.765625 20.3125 51.953125 17.578125 
L 51.5625 -6.25 
Q 51.5625 -11.71875 50 -9.765625 
L 46.484375 -2.734375 
Q 48.4375 -1.171875 48.046875 1.5625 
z
M 73.4375 59.375 
L 52.34375 57.03125 
L 52.34375 47.65625 
Q 63.671875 48.828125 65.234375 49.609375 
L 69.140625 45.703125 
Q 62.5 45.703125 52.34375 44.140625 
L 52.34375 35.15625 
L 70.3125 36.71875 
z
M 31.25 33.203125 
L 48.828125 34.765625 
L 48.828125 43.75 
Q 39.0625 42.96875 36.71875 42.1875 
L 32.421875 46.09375 
Q 37.890625 46.09375 48.828125 47.265625 
L 48.828125 56.640625 
L 30.859375 54.6875 
z
M 45.3125 65.234375 
Q 43.75 62.890625 42.1875 59.765625 
Q 37.890625 69.140625 32.8125 76.953125 
L 33.59375 77.734375 
Q 41.015625 69.53125 45.3125 65.234375 
z
" id="FangSong-21333"/>
      <path d="M 68.359375 38.28125 
L 71.09375 41.40625 
L 75.78125 36.71875 
L 72.265625 34.375 
L 69.921875 19.140625 
L 72.65625 16.015625 
L 51.5625 14.453125 
L 51.5625 7.03125 
Q 70.3125 8.59375 72.65625 9.375 
L 76.953125 5.859375 
Q 70.703125 5.46875 51.5625 3.90625 
L 51.5625 -3.515625 
Q 78.125 -1.953125 82.03125 -1.171875 
L 87.5 -4.6875 
Q 76.171875 -5.078125 49.796875 -6.640625 
Q 23.4375 -8.203125 19.53125 -8.59375 
L 14.453125 -5.078125 
Q 24.21875 -5.078125 48.046875 -3.515625 
L 48.046875 3.515625 
Q 32.8125 2.734375 30.078125 1.953125 
L 25.78125 5.46875 
Q 32.8125 5.46875 48.046875 6.640625 
L 48.046875 14.453125 
L 32.421875 13.28125 
Q 32.421875 10.15625 31.640625 10.546875 
Q 30.859375 10.9375 27.734375 15.625 
Q 28.90625 17.578125 28.90625 20.3125 
L 28.515625 31.25 
Q 28.515625 35.15625 27.734375 38.28125 
L 28.515625 39.0625 
L 31.640625 35.15625 
z
M 68.359375 75.78125 
L 71.09375 79.6875 
L 75.78125 75.390625 
L 72.65625 72.265625 
L 70.3125 57.421875 
L 73.4375 54.296875 
L 33.59375 51.953125 
Q 33.59375 47.265625 32.609375 48.046875 
Q 31.640625 48.828125 28.515625 53.515625 
Q 30.078125 54.6875 30.078125 57.421875 
L 30.078125 67.578125 
Q 30.46875 73.046875 29.296875 78.125 
L 30.46875 78.515625 
L 33.59375 73.4375 
z
M 33.59375 64.0625 
Q 58.59375 65.625 60.9375 66.40625 
L 65.234375 62.5 
Q 57.8125 62.890625 33.59375 60.9375 
L 33.59375 55.46875 
L 66.40625 57.421875 
L 68.75 72.265625 
L 33.59375 69.921875 
L 33.59375 64.0625 
z
M 91.015625 45.3125 
Q 82.421875 45.3125 50.1875 43.15625 
Q 17.96875 41.015625 12.890625 40.234375 
L 8.203125 44.140625 
Q 16.796875 44.140625 48.046875 46.09375 
Q 79.296875 48.046875 85.9375 49.609375 
z
M 51.5625 27.34375 
Q 57.421875 27.734375 61.328125 28.515625 
L 65.625 25 
Q 60.15625 25 51.5625 23.828125 
L 51.5625 17.96875 
L 66.40625 19.53125 
L 68.75 34.765625 
L 51.5625 33.59375 
L 51.5625 27.34375 
z
M 48.046875 17.96875 
L 48.046875 23.828125 
Q 40.625 23.046875 39.0625 22.265625 
L 34.765625 26.171875 
Q 39.453125 26.171875 48.046875 26.953125 
L 48.046875 33.203125 
L 32.03125 31.640625 
L 32.421875 16.796875 
z
" id="FangSong-37327"/>
     </defs>
     <use xlink:href="#FangSong-21333"/>
     <use x="100" xlink:href="#FangSong-21697"/>
     <use x="200" xlink:href="#FangSong-20986"/>
     <use x="300" xlink:href="#FangSong-36135"/>
     <use x="400" xlink:href="#FangSong-37327"/>
    </g>
   </g>
   <g id="line2d_16">
    <path d="M 597.424375 63.121875 
L 637.424375 63.121875 
" style="fill:none;stroke:#ff0033;stroke-linecap:square;stroke-width:1.5;"/>
   </g>
   <g id="line2d_17"/>
   <g id="text_19">
    <!-- 累计出货量 -->
    <g transform="translate(653.424375 70.121875)scale(0.2 -0.2)">
     <use xlink:href="#FangSong-32047"/>
     <use x="100" xlink:href="#FangSong-35745"/>
     <use x="200" xlink:href="#FangSong-20986"/>
     <use x="300" xlink:href="#FangSong-36135"/>
     <use x="400" xlink:href="#FangSong-37327"/>
    </g>
   </g>
  </g>
 </g>
 <defs>
  <clipPath id="p3715b96b8a">
   <rect height="266.112" width="357.12" x="57.184375" y="7.2"/>
  </clipPath>
 </defs>
</svg>
